<svg xmlns="http://www.w3.org/2000/svg" xmlns:xlink="http://www.w3.org/1999/xlink" viewBox="0 0 334.83 291.39"><defs><style>.cls-1{fill:url(#linear-gradient);}</style><linearGradient id="linear-gradient" x1="109.35" y1="102.25" x2="228.57" y2="272.51" gradientTransform="matrix(1, 0, 0, -1, 0, 291.29)" gradientUnits="userSpaceOnUse"><stop offset="0" stop-color="#090"/><stop offset="0.21" stop-color="#029900"/><stop offset="0.28" stop-color="#099901"/><stop offset="0.33" stop-color="#149903"/><stop offset="0.38" stop-color="#259806"/><stop offset="0.41" stop-color="#3b9809"/><stop offset="0.45" stop-color="#57970d"/><stop offset="0.47" stop-color="#779612"/><stop offset="0.5" stop-color="#9d9518"/><stop offset="0.53" stop-color="#c6941f"/><stop offset="0.53" stop-color="#cf9420"/><stop offset="0.64" stop-color="#d49421"/><stop offset="1" stop-color="#d69421"/></linearGradient></defs><g id="Layer_2" data-name="Layer 2"><g id="Capa_1" data-name="Capa 1"><path class="cls-1" d="M239.88,28a103.52,103.52,0,1,0,.14.13Zm2.23,144.3c-17.89,19.16-53.17,16.73-87-3.29,1.52-3.75,4.81-7.1,11.15-9,.05,0,.1,0,.15,0s.1-.05.15-.05h0a27.88,27.88,0,1,0-34.82-35.59c-.61,1.73-2.08,15.11-5.37,22.91C86.78,109.6,73.05,59.87,95.7,35.59c17.74-19,52.41-16.77,85.91,2.64-3.49,2.53-21.49,9.93-25.29,12.92a.21.21,0,0,1-.1.06,27.54,27.54,0,0,0-9.17,12.26,25.11,25.11,0,0,0-1.63,9c0,15.41,13.64,27.88,30.42,27.88a23.17,23.17,0,0,0,3-.13c12.72-1.14,23.09-10.74,26.59-23,1.61-5.66,3.69-13.33,4.57-17.91l.3.31C250.78,97.31,265,147.79,242.11,172.27Z"/><path d="M57.41,269.88a17.39,17.39,0,0,1-1.51,6.65,24.53,24.53,0,0,1-13.07,12.63,30,30,0,0,1-11.77,2.15,41.11,41.11,0,0,1-9.26-1,26.15,26.15,0,0,1-7.58-3A25.61,25.61,0,0,1,8,281.93a31.5,31.5,0,0,1-4.35-6.79,34.92,34.92,0,0,1-2.7-8,43,43,0,0,1-.9-9.05,40,40,0,0,1,2.26-13.92,29.57,29.57,0,0,1,6.46-10.52A28.15,28.15,0,0,1,18.61,227a31.82,31.82,0,0,1,12.08-2.28,30.14,30.14,0,0,1,13.92,3.12A25.26,25.26,0,0,1,54,235.54c2.16,3.06,3.25,6,3.25,8.67a5.76,5.76,0,0,1-1.58,3.95,5,5,0,0,1-3.82,1.72,5.33,5.33,0,0,1-3.76-1.19,16.74,16.74,0,0,1-2.79-4.09,19.68,19.68,0,0,0-6-7.15,14.65,14.65,0,0,0-8.5-2.38A15.37,15.37,0,0,0,18,241.18q-4.77,6.09-4.77,17.35A31.93,31.93,0,0,0,15.31,271a15.73,15.73,0,0,0,6,7.45,16.56,16.56,0,0,0,9.05,2.46,15.9,15.9,0,0,0,9.51-2.79A16.93,16.93,0,0,0,45.73,270a14.06,14.06,0,0,1,2.06-4.16,4.67,4.67,0,0,1,4-1.6,5.49,5.49,0,0,1,4,1.63A5.4,5.4,0,0,1,57.41,269.88Z"/><path d="M111.55,235.89H82.16V251.7h27.06a6.39,6.39,0,0,1,4.45,1.33,4.63,4.63,0,0,1,1.48,3.54,4.82,4.82,0,0,1-1.45,3.58,6.38,6.38,0,0,1-4.48,1.38H82.16v18.32h30.4a6.59,6.59,0,0,1,4.63,1.43,4.89,4.89,0,0,1,1.56,3.79,4.8,4.8,0,0,1-1.56,3.71,6.69,6.69,0,0,1-4.63,1.43H77.11c-2.84,0-4.89-.63-6.13-1.89s-1.87-3.3-1.86-6.1v-48.4a10.76,10.76,0,0,1,.83-4.59,5.13,5.13,0,0,1,2.62-2.59,10.82,10.82,0,0,1,4.54-.81h34.44a6.71,6.71,0,0,1,4.63,1.38,4.67,4.67,0,0,1,1.51,3.62,4.77,4.77,0,0,1-1.51,3.67A6.77,6.77,0,0,1,111.55,235.89Z"/><path d="M167.58,235.89H141.89v16.46h21.52a6.37,6.37,0,0,1,4.46,1.35,4.61,4.61,0,0,1,1.47,3.57,4.5,4.5,0,0,1-1.5,3.56,6.6,6.6,0,0,1-4.43,1.32H141.89v21.21c0,2.69-.6,4.69-1.82,6a6.61,6.61,0,0,1-9.34.06l-.06-.06q-1.81-2-1.82-6V233.82a10.76,10.76,0,0,1,.83-4.59,5.13,5.13,0,0,1,2.62-2.59,10.82,10.82,0,0,1,4.54-.81h30.74a6.7,6.7,0,0,1,4.64,1.38,4.67,4.67,0,0,1,1.51,3.62,4.77,4.77,0,0,1-1.51,3.67A6.76,6.76,0,0,1,167.58,235.89Z"/><path d="M211.77,224.73A34.36,34.36,0,0,1,229,228.79a26.38,26.38,0,0,1,10.87,11.55,39.54,39.54,0,0,1,3.69,17.59,43.37,43.37,0,0,1-2,13.57,29.75,29.75,0,0,1-6.11,10.59,26.6,26.6,0,0,1-9.93,6.85A36.09,36.09,0,0,1,212,291.31a35.71,35.71,0,0,1-13.53-2.44,26.83,26.83,0,0,1-10-6.87,29.46,29.46,0,0,1-6-10.67,42.59,42.59,0,0,1-2-13.49,41.09,41.09,0,0,1,2.13-13.61,29.11,29.11,0,0,1,6.15-10.58,26.58,26.58,0,0,1,9.84-6.65A35.26,35.26,0,0,1,211.77,224.73Zm18.53,33.11A30.41,30.41,0,0,0,228,245.59a17.17,17.17,0,0,0-6.52-7.84,18,18,0,0,0-9.73-2.66,17.43,17.43,0,0,0-7.23,1.48,15.64,15.64,0,0,0-5.71,4.28,20.13,20.13,0,0,0-3.77,7.18,31.89,31.89,0,0,0-1.39,9.81,32.74,32.74,0,0,0,1.39,9.93,20.18,20.18,0,0,0,3.9,7.36,16.66,16.66,0,0,0,5.8,4.37,18.31,18.31,0,0,0,16.38-1.06,17.36,17.36,0,0,0,6.68-7.73,30.12,30.12,0,0,0,2.48-12.87Z"/><path d="M262.75,225.83h17a45.48,45.48,0,0,1,11.38,1.23,20.8,20.8,0,0,1,8.6,4.61q10,8.61,10.06,26.17a51.63,51.63,0,0,1-1,10.59,31.31,31.31,0,0,1-3.12,8.63,26.85,26.85,0,0,1-5.4,6.87,22.7,22.7,0,0,1-5.66,3.74,26.42,26.42,0,0,1-6.61,2,51.09,51.09,0,0,1-8,.57H263a10.78,10.78,0,0,1-5.36-1.07,5,5,0,0,1-2.35-3,19.35,19.35,0,0,1-.55-5.08V233.82q0-4.22,1.89-6.1T262.75,225.83Zm5.06,10.32v43.7h9.88c2.16,0,3.86-.06,5.09-.18a15.81,15.81,0,0,0,3.82-.88,10.48,10.48,0,0,0,3.43-2q6.54-5.55,6.54-19.06,0-9.54-2.87-14.28a12.84,12.84,0,0,0-7.1-6,34.44,34.44,0,0,0-10.19-1.3Z"/><path d="M321.78,283.36V232.65q0-4,1.8-5.93a6,6,0,0,1,4.66-2,6.2,6.2,0,0,1,4.76,1.95c1.22,1.31,1.83,3.29,1.83,6v50.72q0,4-1.83,6a6.18,6.18,0,0,1-4.76,2,6,6,0,0,1-4.63-2A8.84,8.84,0,0,1,321.78,283.36Z"/></g></g></svg>