<svg xmlns="http://www.w3.org/2000/svg" viewBox="0 0 503 503"><defs><style>.cls-1{fill:#00096a;}.cls-2{fill:none;stroke:#00096a;stroke-miterlimit:10;stroke-width:14px;}</style></defs><g id="Layer_2" data-name="Layer 2"><g id="Software_de_Gestión" data-name="Software de Gestión"><path class="cls-1" d="M251.5,17a234.56,234.56,0,0,1,91.27,450.58A234.57,234.57,0,0,1,160.23,35.42,233.08,233.08,0,0,1,251.5,17m0-17C112.6,0,0,112.6,0,251.5S112.6,503,251.5,503,503,390.4,503,251.5,390.4,0,251.5,0Z"/><g id="Layer_2-2" data-name="Layer 2"><g id="Capa_7" data-name="Capa 7"><path class="cls-2" d="M124.5,391.6V233.14c0-7.41,7.84-13.41,17.51-13.41H361c9.68,0,17.51,6,17.51,13.41V391.6"/><path class="cls-2" d="M164,262.32H192.3c4.14,0,7.49,3.8,7.49,8.48v23.33c0,4.69-3.35,8.49-7.49,8.49H164"/><path class="cls-2" d="M230.21,333v-9.75c0-2.59,2.86-4.7,6.4-4.7h17.61c3.54,0,6.41,2.11,6.41,4.7V333"/><path class="cls-2" d="M370.17,130.51l-6.69,8.6c-1.86,2.37-5.67,2.49-8.51.27l-14.2-11.06c-2.86-2.22-3.66-5.95-1.81-8.32l6.71-8.6"/><path class="cls-2" d="M135.87,130.51l6.71,8.6c1.88,2.37,5.68,2.48,8.51.27l14.17-11.06c2.85-2.22,3.66-5.95,1.8-8.32l-6.7-8.6"/><path class="cls-2" d="M336.67,302.62h-30a8.28,8.28,0,0,1-8-8.49V270.8a8.24,8.24,0,0,1,8-8.48h30"/><path class="cls-2" d="M167.09,346.73v19c0,3.81,2.8,6.89,6.25,6.89H329.66c3.45,0,6.25-3.08,6.25-6.89v-19"/><line class="cls-2" x1="310.34" y1="219.86" x2="350.29" y2="135.27"/><line class="cls-2" x1="195.19" y1="219.86" x2="155.24" y2="135.27"/></g></g></g></g></svg>