<svg xmlns="http://www.w3.org/2000/svg" viewBox="0 0 3052 45"><defs><style>.cls-1{fill:#f2f2f2;}</style></defs><g id="Layer_2" data-name="Layer 2"><g id="Layer_1-2" data-name="Layer 1"><path class="cls-1" d="M3052,26.5V45H0V9.85C93.53,21.69,222.32,29,364.5,29c100.24,0,193.82-3.63,273.09-9.93,32.93-2.61,63.38-5.68,90.82-9.14C807.68,3.63,901.26,0,1001.5,0c99.17,0,191.82,3.56,270.54,9.73,28.54,3.63,60.39,6.84,94.92,9.54C1445.68,25.44,1538.33,29,1637.5,29c100.24,0,193.82-3.63,273.09-9.93h.09c32.9-2.61,63.32-5.67,90.73-9.13h.08c79.25-6.29,172.8-9.92,273-9.92,99.17,0,191.82,3.56,270.54,9.73h0c28.54,3.63,60.39,6.84,94.91,9.54h0C2718.69,25.44,2811.34,29,2910.5,29,2959.56,29,3007,28.13,3052,26.5Z"/></g></g></svg>