<svg xmlns="http://www.w3.org/2000/svg" viewBox="0 0 494.55 176.51"><defs><style>.cls-1{fill:#4056f4;}.cls-18,.cls-2,.cls-20,.cls-21,.cls-3,.cls-7,.cls-8{fill:#fff;}.cls-2{opacity:0.4;}.cls-3,.cls-6{opacity:0.6;}.cls-4{fill:#bac0f4;}.cls-22,.cls-5{fill:#f2f2f2;}.cls-7{opacity:0.88;}.cls-8{opacity:0.76;}.cls-10,.cls-11,.cls-12,.cls-17,.cls-23,.cls-9{fill:none;}.cls-9{stroke:#2b49f7;}.cls-10,.cls-11,.cls-12,.cls-17,.cls-18,.cls-20,.cls-23,.cls-9{stroke-miterlimit:10;}.cls-10,.cls-11,.cls-12,.cls-9{stroke-width:6px;}.cls-10{stroke:#f4a72c;}.cls-11{stroke:#dcf42c;}.cls-12{stroke:#2cf4a7;}.cls-13{fill:#2cf4a7;}.cls-14{fill:#dcf42c;}.cls-15{fill:#f4a72c;}.cls-16{fill:#2b49f7;}.cls-17,.cls-18{stroke:#000;}.cls-18,.cls-20{stroke-width:0.25px;}.cls-19{opacity:0.8;}.cls-20{stroke:#fff;}.cls-22{opacity:0.51;}.cls-23{stroke:#9e005d;stroke-width:0.5px;}.cls-24{opacity:0.86;}.cls-25{fill:#2d2524;}.cls-26{fill:#75bc19;}.cls-27{fill:#f7a663;}.cls-28{fill:#f8b37a;}.cls-29{fill:#4f2607;}.cls-30{fill:#86c142;}.cls-31{fill:#f9ad73;}.cls-32{fill:#9ecc56;}.cls-33{fill:#0f0f0f;}.cls-34{fill:#e2e563;}.cls-35{fill:#f18b6b;}.cls-36{fill:#f5ae78;}.cls-37{fill:#f47b5b;}.cls-38{fill:#af2e56;}.cls-39{fill:#f68c6b;}.cls-40{fill:#a80f46;}.cls-41{fill:#bdc1d6;}.cls-42{fill:#b51010;}</style></defs><g id="Layer_2" data-name="Layer 2"><g id="gestion_software" data-name="gestion software"><path class="cls-1" d="M293.79,0V135H243.3a6.79,6.79,0,0,1-6.8-6.8V6.8A6.8,6.8,0,0,1,243.3,0Z"/><circle class="cls-2" cx="265.14" cy="23.35" r="15.33"/><rect class="cls-3" x="242.52" y="40.87" width="45.25" height="2.92" rx="0.5"/><rect class="cls-3" x="242.52" y="44.52" width="23.35" height="2.92" rx="0.5"/><rect class="cls-3" x="242.52" y="64.95" width="45.25" height="4.38" rx="0.5"/><rect class="cls-3" x="242.52" y="72.98" width="45.25" height="4.38" rx="0.5"/><rect class="cls-3" x="242.52" y="81.01" width="45.25" height="4.38" rx="0.5"/><rect class="cls-3" x="242.52" y="89.04" width="45.25" height="4.38" rx="0.5"/><rect class="cls-3" x="242.52" y="97.06" width="45.25" height="4.38" rx="0.5"/><rect class="cls-3" x="242.52" y="105.09" width="45.25" height="4.38" rx="0.5"/><rect class="cls-3" x="277.55" y="122.61" width="10.22" height="4.38" rx="0.5"/><path class="cls-4" d="M458.08,6.8V128.21a6.79,6.79,0,0,1-6.8,6.8h-157V0h157A6.8,6.8,0,0,1,458.08,6.8Z"/><rect class="cls-1" x="307.56" y="23.42" width="22.26" height="6.2"/><rect class="cls-1" x="332.01" y="23.42" width="20.43" height="6.2"/><rect class="cls-1" x="354.63" y="23.42" width="20.43" height="6.2"/><rect class="cls-1" x="377.26" y="23.42" width="20.43" height="6.2"/><rect class="cls-1" x="399.88" y="23.42" width="20.43" height="6.2"/><rect class="cls-1" x="422.51" y="23.42" width="22.26" height="6.2"/><rect class="cls-5" x="422.51" y="31.81" width="22.26" height="5.84"/><rect class="cls-5" x="399.88" y="31.81" width="20.43" height="5.84"/><g class="cls-6"><rect class="cls-1" x="307.56" y="63.92" width="22.26" height="6.2"/></g><rect class="cls-5" x="332.01" y="63.92" width="20.43" height="6.2"/><rect class="cls-5" x="354.63" y="63.92" width="20.43" height="6.2"/><rect class="cls-5" x="377.26" y="63.92" width="20.43" height="6.2"/><rect class="cls-5" x="399.88" y="63.92" width="20.43" height="6.2"/><rect class="cls-5" x="422.51" y="63.92" width="22.26" height="6.2"/><rect class="cls-5" x="422.51" y="55.9" width="22.26" height="5.84"/><rect class="cls-5" x="399.88" y="55.9" width="20.43" height="5.84"/><rect class="cls-5" x="377.26" y="55.9" width="20.43" height="5.84"/><rect class="cls-5" x="354.63" y="55.9" width="20.43" height="5.84"/><rect class="cls-5" x="332.01" y="55.9" width="20.43" height="5.84"/><g class="cls-6"><rect class="cls-1" x="307.56" y="55.9" width="22.26" height="5.84"/></g><g class="cls-6"><rect class="cls-1" x="307.56" y="47.87" width="22.26" height="5.84"/></g><rect class="cls-5" x="332.01" y="47.87" width="20.43" height="5.84"/><rect class="cls-5" x="354.63" y="47.87" width="20.43" height="5.84"/><rect class="cls-5" x="377.26" y="47.87" width="20.43" height="5.84"/><rect class="cls-5" x="399.88" y="47.87" width="20.43" height="5.84"/><rect class="cls-5" x="422.51" y="47.87" width="22.26" height="5.84"/><rect class="cls-5" x="422.51" y="39.84" width="22.26" height="5.84"/><rect class="cls-5" x="399.88" y="39.84" width="20.43" height="5.84"/><rect class="cls-5" x="377.26" y="39.84" width="20.43" height="5.84"/><rect class="cls-5" x="354.63" y="39.84" width="20.43" height="5.84"/><rect class="cls-5" x="332.01" y="39.84" width="20.43" height="5.84"/><g class="cls-6"><rect class="cls-1" x="307.56" y="39.84" width="22.26" height="5.84"/></g><g class="cls-6"><rect class="cls-1" x="307.56" y="31.81" width="22.26" height="5.84"/></g><rect class="cls-5" x="332.01" y="31.81" width="20.43" height="5.84"/><rect class="cls-5" x="354.63" y="31.81" width="20.43" height="5.84"/><rect class="cls-5" x="377.26" y="31.81" width="20.43" height="5.84"/><rect class="cls-7" x="307.38" y="9.49" width="68.6" height="9.49"/><rect class="cls-8" x="307.38" y="79.3" width="67.87" height="45.98"/><path class="cls-9" d="M313.92,109.17a17.18,17.18,0,0,1,3-18.39"/><path class="cls-10" d="M342.87,113.2a17.16,17.16,0,0,1-28.95-4"/><path class="cls-11" d="M341.32,89.74a17.14,17.14,0,0,1,1.55,23.46"/><path class="cls-12" d="M316.93,90.78a17.14,17.14,0,0,1,24.39-1"/><rect class="cls-13" x="357.01" y="88.79" width="15.33" height="2.92"/><rect class="cls-14" x="357.01" y="96.82" width="15.33" height="2.92"/><rect class="cls-15" x="357.01" y="104.85" width="15.33" height="2.92"/><rect class="cls-16" x="357.01" y="112.88" width="15.33" height="2.92"/><rect class="cls-8" x="377.71" y="79.73" width="67.87" height="45.98"/><rect class="cls-13" x="400.99" y="105.53" width="20.59" height="9.12" transform="translate(301.19 521.38) rotate(-90)"/><rect class="cls-14" x="412.08" y="106.84" width="17.37" height="9.12" transform="translate(309.36 532.16) rotate(-90)"/><rect class="cls-15" x="387.18" y="101.37" width="29.77" height="9.12" transform="translate(296.13 507.99) rotate(-90)"/><rect class="cls-16" x="385.01" y="108.01" width="15.33" height="9.12" transform="translate(280.1 505.25) rotate(-90)"/><line class="cls-17" x1="383.73" y1="84.47" x2="383.73" y2="120.96"/><line class="cls-17" x1="435.19" y1="120.6" x2="383.37" y2="120.6"/><rect class="cls-13" x="429.71" y="86.66" width="10.22" height="2.92"/><rect class="cls-14" x="429.71" y="91.04" width="10.22" height="2.92"/><rect class="cls-15" x="429.71" y="95.42" width="10.22" height="2.92"/><rect class="cls-16" x="429.71" y="99.8" width="10.22" height="2.92"/></g><g id="APP"><path class="cls-5" d="M494.53,73.82v84.53a4.25,4.25,0,0,1-4.25,4.25H444.57a4.24,4.24,0,0,1-4.24-4.25V73.82Z"/><rect class="cls-18" x="445.94" y="79.43" width="42.99" height="6.54"/><rect class="cls-4" x="447.1" y="89.48" width="16.82" height="16.82" rx="1.26"/><rect class="cls-4" x="471.4" y="89.48" width="16.82" height="16.82" rx="1.26"/><rect class="cls-4" x="447.1" y="110.97" width="16.82" height="16.82" rx="1.26"/><rect class="cls-4" x="471.4" y="110.97" width="16.82" height="16.82" rx="1.26"/><rect class="cls-4" x="447.1" y="132.46" width="16.82" height="16.82" rx="1.26"/><rect class="cls-4" x="471.4" y="132.46" width="16.82" height="16.82" rx="1.26"/><path class="cls-1" d="M494.53,67.88v8.84h-54.2V67.88a4.24,4.24,0,0,1,4.24-4.24h45.71A4.24,4.24,0,0,1,494.53,67.88Z"/><g class="cls-19"><path class="cls-20" d="M444.91,70l2.89-2v.58l-2.43,1.66v0l2.43,1.66v.58l-2.89-2Z"/></g><g class="cls-19"><path class="cls-21" d="M456.31,70.71c0-.55-.07-1.21-.06-1.7h0c-.13.46-.29.95-.49,1.49l-.7,1.91h-.38L454,70.54c-.18-.56-.34-1.06-.45-1.53h0c0,.49-.05,1.15-.08,1.74l-.1,1.68h-.49l.28-3.93h.64l.67,1.9c.17.49.3.92.4,1.33h0c.1-.4.24-.83.41-1.33l.7-1.9h.65l.24,3.93h-.49Z"/><path class="cls-21" d="M457.9,69.61l.62,1.67.18.58h0c.05-.17.11-.39.18-.59l.56-1.66H460l-.77,2a4.19,4.19,0,0,1-1,1.77,1.38,1.38,0,0,1-.62.33l-.13-.43A1.38,1.38,0,0,0,458,73a1.6,1.6,0,0,0,.43-.57.41.41,0,0,0,0-.12.38.38,0,0,0,0-.14l-1-2.6Z"/><path class="cls-21" d="M461.11,71.2l-.4,1.23h-.53l1.34-3.93h.61l1.34,3.93h-.54l-.42-1.23Zm1.29-.4L462,69.67c-.09-.26-.15-.49-.21-.72h0c-.06.24-.12.47-.2.71l-.38,1.14Z"/><path class="cls-21" d="M464,70.53c0-.36,0-.65,0-.92h.46l0,.49h0a1.1,1.1,0,0,1,1-.55,1.28,1.28,0,0,1,1.2,1.43,1.34,1.34,0,0,1-1.29,1.52,1,1,0,0,1-.87-.45h0v1.54H464Zm.5.76a.76.76,0,0,0,0,.21.79.79,0,0,0,.77.6c.54,0,.85-.45.85-1.09s-.29-1.05-.84-1.05a.81.81,0,0,0-.77.63.78.78,0,0,0,0,.21Z"/><path class="cls-21" d="M467.34,70.53c0-.36,0-.65,0-.92h.46l0,.49h0a1.1,1.1,0,0,1,1-.55A1.28,1.28,0,0,1,470,71a1.34,1.34,0,0,1-1.29,1.52,1,1,0,0,1-.87-.45h0v1.54h-.5Zm.5.76a.76.76,0,0,0,0,.21.79.79,0,0,0,.77.6c.54,0,.85-.45.85-1.09S469.2,70,468.65,70a.81.81,0,0,0-.77.63.78.78,0,0,0,0,.21Z"/></g><path class="cls-1" d="M494.55,161.37v-8.84h-54.2v8.84a4.24,4.24,0,0,0,4.24,4.24h45.72A4.24,4.24,0,0,0,494.55,161.37Z"/><rect class="cls-5" x="458.33" y="155.92" width="4.58" height="4.58"/><rect class="cls-22" x="458.07" y="161.52" width="5.09" height="0.7"/><polygon class="cls-5" points="447.38 155.85 444.57 160.7 450.18 160.7 447.38 155.85"/><rect class="cls-22" x="444.83" y="161.59" width="5.09" height="0.7"/><rect class="cls-22" x="471.31" y="161.84" width="5.09" height="0.7"/><polygon class="cls-5" points="473.85 155.6 470.77 157.84 471.95 161.45 475.76 161.45 476.93 157.84 473.85 155.6"/><rect class="cls-22" x="484.55" y="161.78" width="5.09" height="0.7"/><polygon class="cls-5" points="488.71 155.66 485.47 155.66 483.86 158.46 485.47 161.27 488.71 161.27 490.33 158.46 488.71 155.66"/></g><g id="Chatbot"><rect class="cls-4" x="180.49" y="94.38" width="66.35" height="62.61"/><circle class="cls-21" cx="196.75" cy="106.35" r="6.09"/><g id="Capa_2" data-name="Capa 2"><g id="Capa_6" data-name="Capa 6"><path class="cls-23" d="M193.36,110.1v-4.23a.43.43,0,0,1,.47-.36h5.85a.43.43,0,0,1,.47.36v4.23"/><path class="cls-23" d="M194.44,106.62h.74a.22.22,0,0,1,.2.23v.62a.21.21,0,0,1-.2.22h-.74"/><path class="cls-23" d="M196.18,108.51v-.24c0-.07.08-.13.17-.13h.47c.1,0,.17.06.17.13v.24"/><path class="cls-23" d="M199.92,103.12l-.18.23a.17.17,0,0,1-.23,0l-.38-.29a.15.15,0,0,1,0-.22l.17-.23"/><path class="cls-23" d="M193.66,103.12l.18.23a.16.16,0,0,0,.22,0l.38-.29a.16.16,0,0,0,.05-.22l-.18-.23"/><path class="cls-23" d="M199,107.69h-.8a.21.21,0,0,1-.21-.22v-.62a.23.23,0,0,1,.21-.23h.8"/><path class="cls-23" d="M194.48,108.89v.51a.17.17,0,0,0,.16.19h4.2a.18.18,0,0,0,.17-.19v-.51"/><line class="cls-23" x1="198.32" y1="105.5" x2="199.39" y2="103.24"/><line class="cls-23" x1="195.24" y1="105.5" x2="194.17" y2="103.24"/></g></g><rect class="cls-3" x="204.36" y="103.84" width="28.33" height="2.38" rx="0.5"/><rect class="cls-3" x="204.36" y="106.82" width="14.62" height="2.38" rx="0.5"/><circle class="cls-21" cx="196.75" cy="137.55" r="6.09"/><g id="Capa_2-2" data-name="Capa 2"><g id="Capa_6-2" data-name="Capa 6"><path class="cls-23" d="M193.36,141.3v-4.23a.43.43,0,0,1,.47-.36h5.85a.43.43,0,0,1,.47.36v4.23"/><path class="cls-23" d="M194.44,137.82h.74a.22.22,0,0,1,.2.23v.62a.21.21,0,0,1-.2.22h-.74"/><path class="cls-23" d="M196.18,139.71v-.24c0-.07.08-.13.17-.13h.47c.1,0,.17.06.17.13v.24"/><path class="cls-23" d="M199.92,134.32l-.18.23a.17.17,0,0,1-.23,0l-.38-.29a.15.15,0,0,1,0-.22l.17-.23"/><path class="cls-23" d="M193.66,134.32l.18.23a.16.16,0,0,0,.22,0l.38-.29a.16.16,0,0,0,.05-.22l-.18-.23"/><path class="cls-23" d="M199,138.89h-.8a.21.21,0,0,1-.21-.22v-.62a.23.23,0,0,1,.21-.23h.8"/><path class="cls-23" d="M194.48,140.09v.52a.17.17,0,0,0,.16.18h4.2a.18.18,0,0,0,.17-.18v-.52"/><line class="cls-23" x1="198.32" y1="136.71" x2="199.39" y2="134.44"/><line class="cls-23" x1="195.24" y1="136.71" x2="194.17" y2="134.44"/></g></g><rect class="cls-3" x="204.36" y="135.05" width="28.33" height="2.38" rx="0.5"/><rect class="cls-3" x="204.36" y="138.02" width="14.62" height="2.38" rx="0.5"/><path class="cls-21" d="M202.84,161.15a6.06,6.06,0,0,1-1.73,4.25h-8.7a6.08,6.08,0,1,1,10.43-4.25Z"/><g id="Capa_2-3" data-name="Capa 2"><g id="Capa_6-3" data-name="Capa 6"><path class="cls-23" d="M193.36,164.89v-4.23a.43.43,0,0,1,.47-.36h5.85a.43.43,0,0,1,.47.36v4.23"/><path class="cls-23" d="M194.44,161.42h.74a.21.21,0,0,1,.2.22v.62a.21.21,0,0,1-.2.22h-.74"/><path class="cls-23" d="M196.18,163.3v-.24c0-.07.08-.13.17-.13h.47c.1,0,.17.06.17.13v.24"/><path class="cls-23" d="M199.92,157.91l-.18.23a.17.17,0,0,1-.23,0l-.38-.3a.15.15,0,0,1,0-.22l.17-.23"/><path class="cls-23" d="M193.66,157.91l.18.23a.16.16,0,0,0,.22,0l.38-.3a.16.16,0,0,0,.05-.22l-.18-.23"/><path class="cls-23" d="M199,162.48h-.8a.21.21,0,0,1-.21-.22v-.62a.21.21,0,0,1,.21-.22h.8"/><path class="cls-23" d="M194.48,163.68v.52a.17.17,0,0,0,.16.18h4.2a.18.18,0,0,0,.17-.18v-.52"/><line class="cls-23" x1="198.32" y1="160.3" x2="199.39" y2="158.04"/><line class="cls-23" x1="195.24" y1="160.3" x2="194.17" y2="158.04"/></g></g><rect class="cls-3" x="204.36" y="158.64" width="28.33" height="2.38" rx="0.5"/><rect class="cls-3" x="204.36" y="161.61" width="14.62" height="2.38" rx="0.5"/><rect class="cls-3" x="195.07" y="119.19" width="28.33" height="2.38" rx="0.5"/><rect class="cls-3" x="208.78" y="122.16" width="14.62" height="2.38" rx="0.5"/><path class="cls-21" d="M236.67,121.86a6.13,6.13,0,0,1-1.14,3.55,7.37,7.37,0,0,0-9.9,0,6.09,6.09,0,1,1,11-3.55Z"/><g class="cls-24"><circle class="cls-1" cx="230.58" cy="120.08" r="2.66"/></g><path class="cls-1" d="M235.53,125.41a6.09,6.09,0,0,1-9.9,0,7.37,7.37,0,0,1,9.9,0Z"/><rect class="cls-3" x="195.07" y="149.63" width="28.33" height="2.38" rx="0.5"/><rect class="cls-3" x="208.78" y="152.6" width="14.62" height="2.38" rx="0.5"/><path class="cls-21" d="M236.67,152.3a6.13,6.13,0,0,1-1.14,3.55,7.37,7.37,0,0,0-9.9,0,6.09,6.09,0,1,1,11-3.55Z"/><g class="cls-24"><circle class="cls-1" cx="230.58" cy="150.52" r="2.66"/></g><path class="cls-1" d="M235.53,155.85a6.09,6.09,0,0,1-9.9,0,7.37,7.37,0,0,1,9.9,0Z"/><path class="cls-1" d="M246.84,84.78v9.65H180.49V84.78a3.36,3.36,0,0,1,3.3-3.43h59.75A3.36,3.36,0,0,1,246.84,84.78Z"/><g class="cls-19"><path class="cls-20" d="M186.11,87.66l2.85-2v.58l-2.4,1.66v0l2.4,1.66v.59l-2.85-2Z"/></g><path class="cls-21" d="M194.4,89.54a2.12,2.12,0,0,1-.93.17,1.65,1.65,0,0,1-1.74-1.79,1.76,1.76,0,0,1,1.84-1.85,1.79,1.79,0,0,1,.84.16l-.11.37a1.7,1.7,0,0,0-.71-.15,1.31,1.31,0,0,0-1.38,1.46,1.29,1.29,0,0,0,1.36,1.42,1.8,1.8,0,0,0,.74-.15Z"/><path class="cls-21" d="M195.43,86.13V87.6h1.71V86.13h.46v3.53h-.46V88h-1.71v1.66H195V86.13Z"/><path class="cls-21" d="M199,88.55l-.37,1.11h-.47l1.2-3.53h.55l1.21,3.53h-.49l-.38-1.11Zm1.16-.36-.35-1a6.28,6.28,0,0,1-.18-.64h0c-.05.21-.11.42-.18.64l-.35,1Z"/><path class="cls-21" d="M201.86,86.52h-1.07v-.39h2.61v.39h-1.08v3.14h-.46Z"/><path class="cls-21" d="M203.79,86.17a4.71,4.71,0,0,1,.84-.07,1.43,1.43,0,0,1,1,.26.71.71,0,0,1,.3.62.85.85,0,0,1-.6.78h0a.9.9,0,0,1,.73.88.94.94,0,0,1-.3.71,1.8,1.8,0,0,1-1.22.33,5.66,5.66,0,0,1-.71,0Zm.46,1.45h.41c.48,0,.77-.25.77-.59s-.32-.58-.78-.58a2.45,2.45,0,0,0-.4,0Zm0,1.69a2,2,0,0,0,.38,0c.47,0,.91-.17.91-.68s-.42-.68-.91-.68h-.38Z"/><path class="cls-21" d="M209.65,87.86A1.66,1.66,0,0,1,208,89.72a1.63,1.63,0,0,1-1.59-1.8,1.68,1.68,0,0,1,1.64-1.85A1.61,1.61,0,0,1,209.65,87.86Zm-2.74,0c0,.76.41,1.43,1.12,1.43s1.14-.66,1.14-1.46-.37-1.44-1.13-1.44S206.91,87.14,206.91,87.91Z"/><path class="cls-21" d="M210.78,86.52h-1.07v-.39h2.61v.39h-1.08v3.14h-.46Z"/><path class="cls-21" d="M246.84,156.84V162a3.29,3.29,0,0,1-3.3,3.29H183.79a3.29,3.29,0,0,1-3.3-3.29v-5.12Z"/><g class="cls-6"><rect class="cls-1" x="183.79" y="159.86" width="49.09" height="2.38" rx="0.5"/></g><path class="cls-1" d="M237.93,161h-.55v.5H238v.15h-.79v-1.4H238v.15h-.58v.45h.55Z"/><path class="cls-1" d="M238.23,161.66v-1.4h.19l.45.71a3.56,3.56,0,0,1,.25.46h0a5.06,5.06,0,0,1,0-.57v-.59h.17v1.4h-.19l-.44-.71a3.57,3.57,0,0,1-.26-.46h0c0,.17,0,.34,0,.57v.6Z"/><path class="cls-1" d="M239.9,161.66l-.46-1.4h.2l.22.69c.06.19.11.36.15.53h0c0-.17.1-.34.16-.53l.24-.69h.19l-.5,1.4Z"/><path class="cls-1" d="M240.93,160.26v1.4h-.18v-1.4Z"/><path class="cls-1" d="M241.47,161.22l-.14.44h-.19l.48-1.4h.22l.47,1.4h-.19l-.15-.44Zm.46-.14-.13-.4a1.53,1.53,0,0,1-.08-.26h0a2.5,2.5,0,0,1-.07.26l-.14.4Z"/><path class="cls-1" d="M242.52,160.28a1.75,1.75,0,0,1,.35,0,.56.56,0,0,1,.4.12.33.33,0,0,1,.11.26.37.37,0,0,1-.26.36h0a.33.33,0,0,1,.2.28,2.46,2.46,0,0,0,.11.38h-.19a2.4,2.4,0,0,1-.09-.33c0-.19-.12-.27-.28-.27h-.17v.6h-.18Zm.18.64h.18c.2,0,.32-.11.32-.27s-.13-.26-.32-.26l-.18,0Z"/></g><g id="Layer_5" data-name="Layer 5"><path class="cls-25" d="M110.55,96s15,0,21-5c0,0,16,35,21,59l5,14s0,3-6,2l-11.5-23.5s-11-26-15-31c0,0,3,11,1,57,0,0-4,2-7,0A384.3,384.3,0,0,0,110.55,96Z"/><path class="cls-26" d="M98.55,42s-18,18-23,20c0,0,0,5,2,7,0,0,19-3,24-14S98.55,42,98.55,42Z"/><path class="cls-27" d="M102.55,43s.31-1.09.57-2.47c.39-2.12-1.57-4.53-.57-5.53,1.58-1.58,7-2,7-2l1,1s8,8,6,9S102.55,43,102.55,43Z"/><path class="cls-28" d="M103.55,23s-6,9-6,11,6,2,6,2l3-2s2,3,4,0,0-4,0-4S110.55,21,103.55,23Z"/><path class="cls-29" d="M99.55,30s-1-1-2,3-2,3,0,4,6,3,7,1a68.18,68.18,0,0,1,5-7,1.39,1.39,0,0,1,2,0c1,1,2,2,2-2,0,0,0-2,1-2s3-4-1-5-2,1-3-1-1-1-1-1-2-6-5-3-4.5,5.5.5,6.5,4,3,4,3-4,10-7,6Z"/><path class="cls-30" d="M98.55,42a25.93,25.93,0,0,0,1,22c6,12,11,32,11,32a25.22,25.22,0,0,0,21-5s6-34-3-47c0,0-3-5-13-4,0,0-8.5,5.5-12.5.5C103.05,40.5,98.05,41.5,98.55,42Z"/><path class="cls-31" d="M145.5,59.92s9.41,6,13.49,5.48a18,18,0,0,1,1.71-1.77c.86-.75.15.22,1,1a9,9,0,0,0,3.36.45c1.49,0,1.6.72,1.6.72s.89,2.23-4.55,4a5.16,5.16,0,0,1-5.22-1.19S148.55,68,145.13,67c-1.58-1-.61-2.75-.58-3C144.66,63,145.5,59.92,145.5,59.92Z"/><path class="cls-32" d="M123.08,41.45a2.46,2.46,0,0,1,2.18,0A8.43,8.43,0,0,1,127.55,43c2.49,2.42,4.22,4.3,7.85,7.85,4,3.87,9.81,9.36,11.8,10.15,0,0,0,4-2,6,0,0-11.65-4-20.76-11-2.66-2-4.76-4.77-4.88-8.11A6.56,6.56,0,0,1,123.08,41.45Z"/><path class="cls-31" d="M75.55,62s-10,5-14,4A18.52,18.52,0,0,0,60,64.06a2.29,2.29,0,0,0-3-.36A12,12,0,0,0,55.55,65c-2,2-3.3,6.4-3.3,6.4s4.3,5.6,5.3,2.6,5.74-4.6,5.74-4.6,14.76.1,14.76-.9S75.55,62,75.55,62Z"/><path class="cls-33" d="M125.55,168s1,0,1,5c0,0,2,2-17,0,0,0,0-4,9.5-5A11.37,11.37,0,0,0,125.55,168Z"/><path class="cls-33" d="M151.55,166s-.88,1.76,3.13,7.74a6.3,6.3,0,0,0,3.18,2.51,3.33,3.33,0,0,0,4.07-1.09,2.54,2.54,0,0,0,.39-2.12c-.61-2.34-2.37-8.24-4.77-9A5.57,5.57,0,0,1,151.55,166Z"/><path class="cls-34" d="M.55,97a267.11,267.11,0,0,0,5,71s5,1,4-2,2-50,2-50l11,50s5,1,6-1c0,0-1-25-7-68C21.55,97,8.55,101,.55,97Z"/><path class="cls-35" d="M15.55,40l5-7,6,3v1s-1.48,3-2.5,5.49c.5.51.57.33.5.51s-.9.52-1,.75c-.55,1.53-.74,2.61,0,2.25.9-.45-8-5-8-5Z"/><path class="cls-36" d="M20.55,33s1,6,8,5,3-9,3-9-2-6-3-6-11,5-11,5l1,5Z"/><path class="cls-37" d="M30.42,55.3s-2.86,19.64,6,23.84a3.53,3.53,0,0,1,3.73.77c.35,1.09.35,1.09.88,1.32a2.37,2.37,0,0,1,.47.77c0,1.14,0,1.31-.19,1.42a6.32,6.32,0,0,1-3,.92c-3.36.19-5-1.41-4.9-2.58,0,0-14.79-5.18-14.74-27.95S30.42,55.3,30.42,55.3Z"/><path class="cls-38" d="M15.55,40s-18,6-15,58c0,0,11,7,22,0,0,0-2.5-4.5,1.5-17.5s7-26,7-26a15.9,15.9,0,0,0-7-12S25.05,46.5,15.55,40Z"/><path class="cls-39" d="M28.55,56s13,15,22,11c0,0,1-3,5-2s10,3,7,7-5,2-5,2,2-5-4-3c0,0-2,1-3,0,0,0-13.57,7.82-30.79-7.09S28.55,56,28.55,56Z"/><path class="cls-40" d="M12.55,43s8-6,14,10l2,3-10,9s-7-6-8-12S10.55,46,12.55,43Z"/><path class="cls-41" d="M15.55,24s1-5,10-6a3.55,3.55,0,0,0,3-2l.5.5s2,0,1-1c0,0,8,6-4,9,0,0-7,1-4,5,0,0,0,3-1,1a2,2,0,0,0-2-2c-2,0,0,4,1,4a.93.93,0,0,1,1,.93V34.5s-4,0-4-1a1,1,0,0,0-1-1s-1,0,0-1-1-2-1-2S11.05,25.5,15.55,24Z"/><path class="cls-42" d="M5.55,167s-2,7,0,8c0,0,8,1,11,0a10.83,10.83,0,0,0-7-8A2.77,2.77,0,0,1,5.55,167Z"/><path class="cls-42" d="M22.28,164.44s-1.72,4.13-1.51,7.13c0,0,.94,1.59,9.29.55a34.66,34.66,0,0,1,4.55-.31c1.59,0,3.46-.2,2.12-1.36-2.13-1.86-6.47-6.57-10.39-5.29C26.34,165.16,23.41,166.37,22.28,164.44Z"/></g></g></svg>