<svg xmlns="http://www.w3.org/2000/svg" viewBox="0 0 412.49 151.85"><defs><style>.cls-1{fill:#fff;}</style></defs><g id="Layer_2" data-name="Layer 2"><g id="Layer_1-2" data-name="Layer 1"><path class="cls-1" d="M69.07,69A20.64,20.64,0,0,1,55.62,51.4,48.67,48.67,0,0,1,58,30.92C63.46,15.41,67.1,4.84,66.86,0c0,0,17.07,27.78,18.09,29.59,1.52,2.69,6.12,13.33,5.41,26.62a24,24,0,0,1-3.49,12.08S75,66.8,69.59,69.15Z"/><path class="cls-1" d="M84,67.41a20.61,20.61,0,0,1,10-19.74,48.56,48.56,0,0,1,19.47-6.77c16.35-1.83,27.45-3.16,31.7-5.48,0,0-17.59,27.46-18.77,29.17C124.55,67.13,117,75.9,104.7,81a24.14,24.14,0,0,1-12.4,2.11S88.49,71.83,84,68C84,68,84,67.77,84,67.41Z"/><path class="cls-1" d="M92.78,83A20.61,20.61,0,0,1,114,89.06a48.54,48.54,0,0,1,10.28,17.87c4.84,15.72,8.22,26.38,11.29,30.12,0,0-30.26-12.16-32.15-13-2.83-1.27-12.86-7.08-20.2-18.17a24.13,24.13,0,0,1-4.38-11.79s10.41-5.86,13.37-11Z"/><path class="cls-1" d="M79,94.63a20.63,20.63,0,0,1,.63,22.11A48.62,48.62,0,0,1,65.68,132C52.17,141.34,43,147.79,40.41,151.85c0,0,2.4-32.52,2.63-34.58.35-3.07,2.84-14.39,11.19-24.76a24.1,24.1,0,0,1,9.9-7.75s8.74,8.14,14.51,9.41C78.64,94.17,78.76,94.33,79,94.63Z"/><path class="cls-1" d="M63.44,85a20.61,20.61,0,0,1-21.6,4.76A48.46,48.46,0,0,1,24.29,79C12.53,67.45,4.49,59.69,0,57.86c0,0,32.39-3.74,34.46-3.9,3.09-.24,14.67.09,26.42,6.34a24.16,24.16,0,0,1,9.47,8.27S64,78.69,63.83,84.6Z"/><path class="cls-1" d="M150.92,119.46l-2.25-72.94h12.58l-.17,31.58c-.05,9.72.08,20.12-.42,27.47h.21c2.32-6.68,7-17.91,11.08-27.45l13.64-31.6h13L165,119.46Z"/><path class="cls-1" d="M200.61,100.82l-7.7,18.64h-12.8l31.5-72.94h17.13l1.36,72.94H217.71V100.82ZM217.5,90c-.06-13.8.13-26.43.45-33.52h-.31c-2.22,6.9-7,19.25-12.64,33.52Z"/><path class="cls-1" d="M236.29,119.46l15.53-72.94h14.6C272.34,84,274,95.88,274.34,100h.1c1.27-8.76,3.85-21.56,6.43-33.52l4.27-19.93h11.53l-15.53,72.94h-14c-5.71-38.1-7.45-52.29-7.87-56.53h-.1c-1.42,9-3.83,22.19-6.63,35.26L248,119.46Z"/><path class="cls-1" d="M322.39,46.52l-15.54,72.94H294.17l15.54-72.94Z"/><path class="cls-1" d="M335.47,46.52h12.68L335,108.44h24.81l-3.5,11H319.93Z"/><path class="cls-1" d="M383,100.82l-7.69,18.64H362.5L394,46.52h17.13l1.37,72.94H400.1V100.82ZM399.89,90c-.07-13.8.13-26.43.45-33.52H400c-2.22,6.9-7,19.25-12.64,33.52Z"/><path class="cls-1" d="M254.83,132.87c0,1.76.78,2.83,2.43,2.83a2.46,2.46,0,0,0,2.51-2.17c.27-1.34-.12-2.6-2-4.05s-2.73-2.78-2.35-4.71a3.21,3.21,0,0,1,3.34-2.66c2.71,0,3.38,2.09,3.17,3.73h-1.11c.1-1.3-.33-2.72-2.16-2.72a2,2,0,0,0-2.11,1.8c-.25,1.36.21,2.23,1.94,3.61,2.35,1.89,2.81,3.3,2.38,5.18a3.58,3.58,0,0,1-3.72,3c-2.89,0-3.58-2-3.49-3.84Z"/><path class="cls-1" d="M269.92,131.38c-.55,2.77-1.73,5.34-4.28,5.34s-3.13-2.56-2.43-5.74c.79-3.59,2.4-5.14,4.2-5.14C270.18,125.84,270.48,128.53,269.92,131.38Zm-5.56-.31c-.6,2.77-.34,4.64,1.37,4.64s2.52-2,3-4.35c.46-2.1.51-4.49-1.43-4.49C266.09,126.87,265,128.3,264.36,131.07Z"/><path class="cls-1" d="M271,136.53l3.18-14.9h1.13l-3.18,14.9Z"/><path class="cls-1" d="M281.38,133.73c-.27,1.25-.5,2.31-.56,2.8h-1.08a9.82,9.82,0,0,1,.23-1.48,2.82,2.82,0,0,1-2.66,1.67c-1.06,0-2.54-.47-2-3.15l1.6-7.56h1.14l-1.54,7.26c-.32,1.47-.13,2.43,1.16,2.43s2.3-.84,2.84-3.35l1.34-6.34H283Z"/><path class="cls-1" d="M290,133.72c-.46,1.45-1.42,3-3.49,3-2.63,0-3.05-2.35-2.34-5.64s2.05-5.22,4.21-5.22,2.66,1.62,2.45,3.24h-1.13c.13-1.32-.21-2.21-1.44-2.21s-2.25.94-3,4.34c-.57,2.74-.29,4.48,1.3,4.48,1.12,0,1.83-.74,2.3-2Z"/><path class="cls-1" d="M293.58,126h1.12l-2.23,10.52h-1.13Zm.94-4.38h1.13l-.46,2.09h-1.13Z"/><path class="cls-1" d="M302.57,131.38c-.55,2.77-1.74,5.34-4.28,5.34s-3.14-2.56-2.44-5.74c.79-3.59,2.41-5.14,4.21-5.14C302.83,125.84,303.13,128.53,302.57,131.38Zm-5.56-.31c-.61,2.77-.34,4.64,1.37,4.64s2.52-2,3-4.35c.46-2.1.51-4.49-1.43-4.49C298.74,126.87,297.6,128.3,297,131.07Z"/><path class="cls-1" d="M305.17,129.26c.47-2.15.61-2.95.66-3.25h1.1c0,.32-.16,1-.27,1.49a2.94,2.94,0,0,1,2.69-1.66c1.4,0,2.53.92,2,3.39l-1.55,7.3h-1.13l1.53-7.16c.32-1.49,0-2.48-1.26-2.48-1.45,0-2.37,1.1-2.88,3.48l-1.31,6.16h-1.14Z"/><path class="cls-1" d="M314.24,131.35a10.9,10.9,0,0,0-.25,2.11c0,1.41.45,2.25,1.63,2.25a2.39,2.39,0,0,0,2.15-1.7h1.1a3.61,3.61,0,0,1-3.4,2.71c-3,0-2.84-3.2-2.3-5.68.75-3.39,2.18-5.2,4.24-5.2,2.37,0,3,2,2.31,4.73l-.19.78Zm4.38-.94a8,8,0,0,0,.25-1.66c0-1.07-.35-1.92-1.61-1.92-1.43,0-2.33,1.59-2.82,3.58Z"/><path class="cls-1" d="M321.7,133.73a1.7,1.7,0,0,0,1.79,2,1.65,1.65,0,0,0,1.78-1.45c.24-1.16-.18-1.92-1.52-2.85-1.68-1.15-2.16-2-1.83-3.53a2.57,2.57,0,0,1,2.67-2.07,2.37,2.37,0,0,1,2.55,2.82h-1.07c0-.86-.26-1.86-1.55-1.86A1.44,1.44,0,0,0,323,128c-.25,1.09.18,1.67,1.35,2.48,2,1.34,2.36,2.44,2,4a2.8,2.8,0,0,1-3,2.23,2.53,2.53,0,0,1-2.76-3Z"/><path class="cls-1" d="M333.6,131.35a11.65,11.65,0,0,0-.24,2.11c0,1.41.45,2.25,1.62,2.25a2.39,2.39,0,0,0,2.16-1.7h1.09a3.58,3.58,0,0,1-3.39,2.71c-2.95,0-2.84-3.2-2.3-5.68.75-3.39,2.18-5.2,4.23-5.2,2.37,0,3,2,2.32,4.73l-.19.78Zm4.39-.94a8,8,0,0,0,.25-1.66c0-1.07-.36-1.92-1.61-1.92-1.43,0-2.33,1.59-2.82,3.58Z"/><path class="cls-1" d="M341.48,129.26c.47-2.15.61-2.95.66-3.25h1.1c0,.32-.16,1-.28,1.49a3,3,0,0,1,2.69-1.66c1.41,0,2.54.92,2,3.39l-1.56,7.3H345l1.53-7.16c.31-1.49,0-2.48-1.27-2.48s-2.36,1.1-2.87,3.48l-1.31,6.16h-1.14Z"/><path class="cls-1" d="M353.9,132.87c0,1.76.78,2.83,2.43,2.83a2.45,2.45,0,0,0,2.51-2.17c.28-1.34-.12-2.6-1.95-4.05s-2.74-2.78-2.35-4.71a3.2,3.2,0,0,1,3.34-2.66c2.7,0,3.37,2.09,3.17,3.73h-1.11c.1-1.3-.33-2.72-2.16-2.72a2,2,0,0,0-2.12,1.8c-.24,1.36.21,2.23,1.94,3.61,2.35,1.89,2.81,3.3,2.38,5.18a3.57,3.57,0,0,1-3.71,3c-2.89,0-3.59-2-3.5-3.84Z"/><path class="cls-1" d="M369,131.38c-.55,2.77-1.74,5.34-4.29,5.34s-3.13-2.56-2.43-5.74c.79-3.59,2.41-5.14,4.2-5.14C369.26,125.84,369.56,128.53,369,131.38Zm-5.57-.31c-.6,2.77-.33,4.64,1.37,4.64s2.52-2,3-4.35c.45-2.1.5-4.49-1.44-4.49C365.17,126.87,364,128.3,363.43,131.07Z"/><path class="cls-1" d="M370.29,136.53l2-9.53h-1.45l.22-1h1.46l.35-1.67c.32-1.5.83-2.82,2.53-2.82a2.73,2.73,0,0,1,.94.15l-.23,1a2.43,2.43,0,0,0-.77-.12c-.86,0-1.09.62-1.35,1.77l-.36,1.7h1.66l-.21,1h-1.66l-2,9.53Z"/><path class="cls-1" d="M375.18,126h1.57l.62-2.87h1.11l-.62,2.87h1.84l-.21,1h-1.85l-1.51,7.19c-.18.83-.2,1.52.73,1.52a4.3,4.3,0,0,0,.93-.12l-.2.92a3.16,3.16,0,0,1-1.13.17c-1.23,0-1.87-.6-1.52-2.22l1.6-7.46H375Z"/><path class="cls-1" d="M381.76,126c0,5,0,7.61-.08,9.23h0c.44-1.28,1.24-3.1,3.93-9.23h1.15c0,5.78,0,7.74-.05,9.21h0c.37-1.25,1.28-3.29,3.81-9.21h1.2L387,136.53h-1.2c0-3.68-.06-7.63,0-9h0c-.52,1.58-2,4.82-3.8,9h-1.26L380.62,126Z"/><path class="cls-1" d="M397.4,134.19c-.12.58-.39,1.8-.45,2.34h-1.1a12.48,12.48,0,0,1,.23-1.3,2.71,2.71,0,0,1-2.62,1.49c-1.95,0-2.5-1.67-2.13-3.35.44-1.93,1.84-2.61,3.59-2.92.7-.13,1.47-.17,2.24-.24l.25-1.2c.24-1.15.07-2.2-1.55-2.2-1.15,0-1.69.65-2,1.9h-1.1c.34-1.69,1.26-2.87,3.25-2.87s2.95,1,2.49,3.17Zm-.43-3c-.65.06-1.31.1-1.9.21-1.29.22-2.31.72-2.62,2.13-.22,1,0,2.23,1.36,2.23,1.55,0,2.44-1.22,3-3.66Z"/><path class="cls-1" d="M401.05,129.57c.36-1.66.57-2.76.71-3.56h1.08c0,.32-.13.88-.35,1.91a3.63,3.63,0,0,1,3.16-2.06l-.29,1.28c-1.85,0-3,1.47-3.41,3.43l-1.27,6h-1.13Z"/><path class="cls-1" d="M406.74,131.35a11.74,11.74,0,0,0-.25,2.11c0,1.41.46,2.25,1.63,2.25a2.37,2.37,0,0,0,2.15-1.7h1.1a3.58,3.58,0,0,1-3.39,2.71c-3,0-2.84-3.2-2.3-5.68.75-3.39,2.18-5.2,4.23-5.2,2.37,0,3,2,2.32,4.73l-.19.78Zm4.39-.94a7.91,7.91,0,0,0,.24-1.66c0-1.07-.35-1.92-1.61-1.92-1.42,0-2.33,1.59-2.81,3.58Z"/></g></g></svg>