<svg xmlns="http://www.w3.org/2000/svg" xmlns:xlink="http://www.w3.org/1999/xlink" viewBox="0 0 1920 1080"><defs><style>.cls-1{fill:url(#linear-gradient);}.cls-2{fill:url(#linear-gradient-2);}.cls-10,.cls-3,.cls-4,.cls-5,.cls-6,.cls-7,.cls-8,.cls-9{stroke-miterlimit:10;stroke-width:9px;}.cls-3{fill:url(#linear-gradient-3);stroke:url(#linear-gradient-4);}.cls-10,.cls-4,.cls-5,.cls-6,.cls-8,.cls-9{stroke:#999;}.cls-4{fill:url(#linear-gradient-5);}.cls-5{fill:url(#linear-gradient-6);}.cls-6{fill:url(#linear-gradient-7);}.cls-7{fill:url(#linear-gradient-8);stroke:url(#linear-gradient-9);}.cls-8{fill:url(#linear-gradient-10);}.cls-9{fill:url(#linear-gradient-11);}.cls-10{fill:url(#linear-gradient-12);}.cls-11{fill:#fff;}.cls-12{fill:#ccc;}</style><linearGradient id="linear-gradient" x1="960" y1="1080" x2="960" gradientUnits="userSpaceOnUse"><stop offset="0" stop-color="#fff"/><stop offset="0.01" stop-color="#f6f6fa"/><stop offset="0.05" stop-color="#c8cadf"/><stop offset="0.09" stop-color="#9da0c6"/><stop offset="0.14" stop-color="#777cb0"/><stop offset="0.2" stop-color="#575d9d"/><stop offset="0.25" stop-color="#3b428d"/><stop offset="0.32" stop-color="#252d80"/><stop offset="0.4" stop-color="#141d76"/><stop offset="0.49" stop-color="#09116f"/><stop offset="0.63" stop-color="#020b6b"/><stop offset="1" stop-color="#00096a"/></linearGradient><linearGradient id="linear-gradient-2" x1="1665.22" y1="131.58" x2="358.4" y2="1438.4" gradientUnits="userSpaceOnUse"><stop offset="0" stop-color="#fff"/><stop offset="0.18" stop-color="#fcfcfc"/><stop offset="0.33" stop-color="#f1f1f1"/><stop offset="0.47" stop-color="#dfdfdf"/><stop offset="0.61" stop-color="#c7c7c7"/><stop offset="0.74" stop-color="#a7a7a7"/><stop offset="0.79" stop-color="#999"/><stop offset="0.88" stop-color="#848484"/><stop offset="1" stop-color="#666"/></linearGradient><linearGradient id="linear-gradient-3" x1="411.22" y1="1001.74" x2="411.22" y2="960.6" gradientUnits="userSpaceOnUse"><stop offset="0" stop-color="#ff8d55"/><stop offset="0.25" stop-color="#ff7c44"/><stop offset="0.75" stop-color="#ff5018"/><stop offset="1" stop-color="#ff3800"/></linearGradient><linearGradient id="linear-gradient-4" x1="411.22" y1="1007.21" x2="411.22" y2="956.1" xlink:href="#linear-gradient-3"/><linearGradient id="linear-gradient-5" x1="475.88" y1="934.81" x2="475.88" y2="855.45" gradientUnits="userSpaceOnUse"><stop offset="0" stop-color="#999"/><stop offset="0.39" stop-color="#aaa"/><stop offset="1" stop-color="#ccc"/></linearGradient><linearGradient id="linear-gradient-6" x1="722.88" y1="934.36" x2="722.88" y2="855" gradientTransform="matrix(-1, 0, 0, 1, 1072.01, 0)" xlink:href="#linear-gradient-5"/><linearGradient id="linear-gradient-7" x1="412.63" y1="936.59" x2="412.63" y2="735.24" gradientUnits="userSpaceOnUse"><stop offset="0" stop-color="#aaa"/><stop offset="0.06" stop-color="#adadad"/><stop offset="0.64" stop-color="#c4c4c4"/><stop offset="1" stop-color="#ccc"/></linearGradient><linearGradient id="linear-gradient-8" x1="412.27" y1="742.9" x2="412.27" y2="688" gradientUnits="userSpaceOnUse"><stop offset="0" stop-color="#333"/><stop offset="0.28" stop-color="#373737"/><stop offset="0.56" stop-color="#434343"/><stop offset="0.83" stop-color="#565656"/><stop offset="1" stop-color="#666"/></linearGradient><linearGradient id="linear-gradient-9" x1="412.33" y1="747.4" x2="412.33" y2="682.63" xlink:href="#linear-gradient-8"/><linearGradient id="linear-gradient-10" x1="411.17" y1="960.6" x2="411.17" y2="936.59" xlink:href="#linear-gradient-7"/><linearGradient id="linear-gradient-11" x1="412.28" y1="830.08" x2="412.28" y2="775.38" gradientUnits="userSpaceOnUse"><stop offset="0" stop-color="#55fcff"/><stop offset="0.37" stop-color="#76f8ff"/><stop offset="1" stop-color="#aaf1ff"/></linearGradient><linearGradient id="linear-gradient-12" x1="412.51" y1="904" x2="412.51" y2="904" xlink:href="#linear-gradient-11"/></defs><g id="Layer_1" data-name="Layer 1"><rect class="cls-1" width="1920" height="1080"/><path class="cls-2" d="M1920,386.36V1080H0V593.6c38.49,9.74,85.79,43,95,145.4,0,0,102,42,60,165,0,0,101-9,121,117,0,0,105,65,109-71h56s1,144,136,61,168-14,168-14,16-118,124-102c0,0-109-111,44-158,0,0-89-141,68-147,0,0-79-123,56-136,0,0,41-142,209-69,0,0,132-93,263-32,0,0,170-128,321,0C1830,353,1879.61,350.47,1920,386.36Z"/></g><g id="Nave_Espacial" data-name="Nave Espacial"><path class="cls-3" d="M393.46,960.6s-12.09,13.12-.08,24.24l4-6.23s-1.33,15.57,14.68,23.13c0,0,12.45-13.34,10.23-24l6.67,7.12s14.29-18.68-3.53-24.24Z"/><path class="cls-4" d="M461.31,855.45l26.16,16.39a19.78,19.78,0,0,1,7.12,7.76,51.86,51.86,0,0,1,5.3,18.3c1.33,14.23,3.11,36.91,3.11,36.91S468.77,899,448.75,904.45C448.75,904.45,458.31,876.14,461.31,855.45Z"/><path class="cls-5" d="M363.7,855l-26.15,16.4a19.54,19.54,0,0,0-7.12,7.75,51.7,51.7,0,0,0-5.31,18.3c-1.33,14.23-3.11,36.91-3.11,36.91s34.23-35.81,54.25-30.36C376.26,904,366.7,875.7,363.7,855Z"/><path class="cls-6" d="M437.18,936.59H386.93C348,836.39,356.6,772.94,373.59,735.24c0,0,38,17.23,77.35,0C491.54,819.36,437.18,936.59,437.18,936.59Z"/><path class="cls-7" d="M450.94,735.24c-39.38,17.23-77.35,0-77.35,0C389,701,411.39,688,411.39,688A125.11,125.11,0,0,1,450.94,735.24Z"/><polygon class="cls-8" points="386.93 936.59 373.59 960.6 448.75 960.6 437.18 936.59 386.93 936.59"/><circle class="cls-9" cx="412.28" cy="802.73" r="27.35"/><line class="cls-10" x1="376.26" y1="904" x2="448.75" y2="904"/></g><g id="Layer_3" data-name="Layer 3"><polygon class="cls-11" points="115.9 281.35 108.95 267.86 93.9 265.94 104.57 255.16 101.75 240.25 115.3 247.08 128.6 239.78 126.3 254.78 137.35 265.18 122.38 267.62 115.9 281.35"/><polygon class="cls-12" points="268.85 304.45 259.11 302.72 252.17 309.76 250.81 299.96 241.96 295.53 250.86 291.21 252.34 281.43 259.2 288.56 268.96 286.94 264.3 295.67 268.85 304.45"/><polygon class="cls-11" points="293.9 193.34 286.95 179.86 271.9 177.94 282.57 167.16 279.75 152.25 293.3 159.08 306.6 151.78 304.3 166.78 315.35 177.18 300.38 179.62 293.9 193.34"/><polygon class="cls-12" points="488.85 347.45 479.11 345.72 472.17 352.76 470.81 342.96 461.96 338.53 470.86 334.21 472.34 324.43 479.2 331.56 488.96 329.94 484.3 338.67 488.85 347.45"/><polygon class="cls-11" points="567.9 574.35 560.95 560.86 545.9 558.94 556.57 548.16 553.75 533.25 567.3 540.08 580.6 532.78 578.3 547.78 589.35 558.18 574.38 560.62 567.9 574.35"/><polygon class="cls-12" points="755.85 485.45 746.11 483.72 739.17 490.76 737.8 480.96 728.96 476.53 737.86 472.21 739.34 462.43 746.2 469.56 755.96 467.94 751.3 476.67 755.85 485.45"/><polygon class="cls-11" points="567.9 151.34 560.95 137.86 545.9 135.94 556.57 125.16 553.75 110.25 567.3 117.08 580.6 109.78 578.3 124.78 589.35 135.18 574.38 137.62 567.9 151.34"/><polygon class="cls-12" points="986.85 237.45 977.11 235.72 970.17 242.76 968.8 232.96 959.96 228.53 968.86 224.21 970.34 214.43 977.2 221.56 986.96 219.94 982.3 228.67 986.85 237.45"/><polygon class="cls-11" points="777.9 302.35 770.95 288.86 755.9 286.94 766.57 276.16 763.75 261.25 777.3 268.08 790.6 260.78 788.3 275.78 799.35 286.18 784.38 288.62 777.9 302.35"/><polygon class="cls-12" points="1774.78 176.25 1783.9 180.07 1792.21 174.71 1791.41 184.57 1799.07 190.82 1789.44 193.1 1785.87 202.32 1780.73 193.87 1770.85 193.31 1777.3 185.81 1774.78 176.25"/><polygon class="cls-11" points="1726.08 279.21 1729.93 293.89 1744.2 299.05 1731.42 307.24 1730.93 322.4 1719.19 312.79 1704.62 317.01 1710.14 302.87 1701.62 290.31 1716.77 291.19 1726.08 279.21"/><polygon class="cls-12" points="1569.46 86.28 1578.59 90.1 1586.9 84.75 1586.09 94.6 1593.75 100.86 1584.13 103.13 1580.55 112.35 1575.41 103.9 1565.54 103.34 1571.98 95.85 1569.46 86.28"/><polygon class="cls-11" points="1449.52 260.42 1453.37 275.09 1467.63 280.25 1454.86 288.44 1454.37 303.61 1442.63 293.99 1428.06 298.21 1433.58 284.07 1425.06 271.51 1440.21 272.39 1449.52 260.42"/><polygon class="cls-12" points="1059.46 84.97 1068.58 88.78 1076.9 83.43 1076.09 93.29 1083.75 99.54 1074.13 101.82 1070.55 111.03 1065.41 102.59 1055.53 102.03 1061.98 94.53 1059.46 84.97"/><polygon class="cls-11" points="1277.53 67.23 1281.37 81.91 1295.64 87.07 1282.87 95.26 1282.38 110.42 1270.64 100.81 1256.07 105.02 1261.59 90.89 1253.07 78.33 1268.22 79.21 1277.53 67.23"/><polygon class="cls-12" points="362.85 548.45 353.11 546.72 346.17 553.76 344.81 543.96 335.96 539.53 344.86 535.21 346.34 525.43 353.2 532.56 362.96 530.95 358.3 539.67 362.85 548.45"/></g></svg>