<svg xmlns="http://www.w3.org/2000/svg" viewBox="0 0 268.89 135.54"><defs><style>.cls-1{fill:#4056f4;}.cls-18,.cls-2,.cls-3,.cls-7,.cls-8{fill:#fff;}.cls-2{opacity:0.4;}.cls-3,.cls-6{opacity:0.6;}.cls-4{fill:#bac0f4;}.cls-5{fill:#f2f2f2;}.cls-7{opacity:0.88;}.cls-8{opacity:0.76;}.cls-10,.cls-11,.cls-12,.cls-17,.cls-19,.cls-21,.cls-9{fill:none;}.cls-9{stroke:#2b49f7;}.cls-10,.cls-11,.cls-12,.cls-17,.cls-18,.cls-19,.cls-21,.cls-9{stroke-miterlimit:10;}.cls-10,.cls-11,.cls-12,.cls-9{stroke-width:6px;}.cls-10{stroke:#f4a72c;}.cls-11{stroke:#dcf42c;}.cls-12{stroke:#2cf4a7;}.cls-13{fill:#2cf4a7;}.cls-14{fill:#dcf42c;}.cls-15{fill:#f4a72c;}.cls-16{fill:#2b49f7;}.cls-17{stroke:#000;}.cls-18,.cls-19,.cls-21{stroke:#00096a;}.cls-18,.cls-21{stroke-width:2px;}.cls-20{fill:#00096a;}</style></defs><g id="Layer_2" data-name="Layer 2"><g id="Software_a_Medida" data-name="Software a Medida"><path class="cls-1" d="M57.29.53v135H6.8a6.81,6.81,0,0,1-6.8-6.8V7.33A6.8,6.8,0,0,1,6.8.53Z"/><circle class="cls-2" cx="28.64" cy="23.88" r="15.33"/><rect class="cls-3" x="6.02" y="41.39" width="45.25" height="2.92" rx="0.5"/><rect class="cls-3" x="6.02" y="45.04" width="23.35" height="2.92" rx="0.5"/><rect class="cls-3" x="6.02" y="65.48" width="45.25" height="4.38" rx="0.5"/><rect class="cls-3" x="6.02" y="73.51" width="45.25" height="4.38" rx="0.5"/><rect class="cls-3" x="6.02" y="81.53" width="45.25" height="4.38" rx="0.5"/><rect class="cls-3" x="6.02" y="89.56" width="45.25" height="4.38" rx="0.5"/><rect class="cls-3" x="6.02" y="97.59" width="45.25" height="4.38" rx="0.5"/><rect class="cls-3" x="6.02" y="105.62" width="45.25" height="4.38" rx="0.5"/><rect class="cls-3" x="41.05" y="123.13" width="10.22" height="4.38" rx="0.5"/><path class="cls-4" d="M221.58,7.33V128.74a6.8,6.8,0,0,1-6.8,6.8h-157V.53h157A6.79,6.79,0,0,1,221.58,7.33Z"/><rect class="cls-1" x="71.06" y="23.94" width="22.26" height="6.2"/><rect class="cls-1" x="95.51" y="23.94" width="20.43" height="6.2"/><rect class="cls-1" x="118.14" y="23.94" width="20.43" height="6.2"/><rect class="cls-1" x="140.76" y="23.94" width="20.43" height="6.2"/><rect class="cls-1" x="163.38" y="23.94" width="20.43" height="6.2"/><rect class="cls-1" x="186.01" y="23.94" width="22.26" height="6.2"/><rect class="cls-5" x="186.01" y="32.34" width="22.26" height="5.84"/><rect class="cls-5" x="163.38" y="32.34" width="20.43" height="5.84"/><g class="cls-6"><rect class="cls-1" x="71.06" y="64.45" width="22.26" height="6.2"/></g><rect class="cls-5" x="95.51" y="64.45" width="20.43" height="6.2"/><rect class="cls-5" x="118.14" y="64.45" width="20.43" height="6.2"/><rect class="cls-5" x="140.76" y="64.45" width="20.43" height="6.2"/><rect class="cls-5" x="163.38" y="64.45" width="20.43" height="6.2"/><rect class="cls-5" x="186.01" y="64.45" width="22.26" height="6.2"/><rect class="cls-5" x="186.01" y="56.42" width="22.26" height="5.84"/><rect class="cls-5" x="163.38" y="56.42" width="20.43" height="5.84"/><rect class="cls-5" x="140.76" y="56.42" width="20.43" height="5.84"/><rect class="cls-5" x="118.14" y="56.42" width="20.43" height="5.84"/><rect class="cls-5" x="95.51" y="56.42" width="20.43" height="5.84"/><g class="cls-6"><rect class="cls-1" x="71.06" y="56.42" width="22.26" height="5.84"/></g><g class="cls-6"><rect class="cls-1" x="71.06" y="48.39" width="22.26" height="5.84"/></g><rect class="cls-5" x="95.51" y="48.39" width="20.43" height="5.84"/><rect class="cls-5" x="118.14" y="48.39" width="20.43" height="5.84"/><rect class="cls-5" x="140.76" y="48.39" width="20.43" height="5.84"/><rect class="cls-5" x="163.38" y="48.39" width="20.43" height="5.84"/><rect class="cls-5" x="186.01" y="48.39" width="22.26" height="5.84"/><rect class="cls-5" x="186.01" y="40.36" width="22.26" height="5.84"/><rect class="cls-5" x="163.38" y="40.36" width="20.43" height="5.84"/><rect class="cls-5" x="140.76" y="40.36" width="20.43" height="5.84"/><rect class="cls-5" x="118.14" y="40.36" width="20.43" height="5.84"/><rect class="cls-5" x="95.51" y="40.36" width="20.43" height="5.84"/><g class="cls-6"><rect class="cls-1" x="71.06" y="40.36" width="22.26" height="5.84"/></g><g class="cls-6"><rect class="cls-1" x="71.06" y="32.34" width="22.26" height="5.84"/></g><rect class="cls-5" x="95.51" y="32.34" width="20.43" height="5.84"/><rect class="cls-5" x="118.14" y="32.34" width="20.43" height="5.84"/><rect class="cls-5" x="140.76" y="32.34" width="20.43" height="5.84"/><rect class="cls-7" x="70.88" y="10.01" width="68.6" height="9.49"/><rect class="cls-8" x="70.88" y="79.83" width="67.87" height="45.98"/><path class="cls-9" d="M77.43,109.7a17.14,17.14,0,0,1,3-18.39"/><path class="cls-10" d="M106.37,113.73a17.15,17.15,0,0,1-28.94-4"/><path class="cls-11" d="M104.83,90.27a17.15,17.15,0,0,1,1.54,23.46"/><path class="cls-12" d="M80.43,91.31a17.15,17.15,0,0,1,24.4-1"/><rect class="cls-13" x="120.51" y="89.32" width="15.33" height="2.92"/><rect class="cls-14" x="120.51" y="97.35" width="15.33" height="2.92"/><rect class="cls-15" x="120.51" y="105.37" width="15.33" height="2.92"/><rect class="cls-16" x="120.51" y="113.4" width="15.33" height="2.92"/><rect class="cls-8" x="141.22" y="80.26" width="67.87" height="45.98"/><rect class="cls-13" x="164.49" y="106.06" width="20.59" height="9.12" transform="translate(64.17 285.4) rotate(-90)"/><rect class="cls-14" x="175.58" y="107.37" width="17.37" height="9.12" transform="translate(72.34 296.19) rotate(-90)"/><rect class="cls-15" x="150.68" y="101.89" width="29.77" height="9.12" transform="translate(59.11 272.02) rotate(-90)"/><rect class="cls-16" x="148.51" y="108.53" width="15.33" height="9.12" transform="translate(43.08 269.27) rotate(-90)"/><line class="cls-17" x1="147.24" y1="85" x2="147.24" y2="121.49"/><line class="cls-17" x1="198.69" y1="121.12" x2="146.87" y2="121.12"/><rect class="cls-13" x="193.21" y="87.19" width="10.22" height="2.92"/><rect class="cls-14" x="193.21" y="91.57" width="10.22" height="2.92"/><rect class="cls-15" x="193.21" y="95.95" width="10.22" height="2.92"/><rect class="cls-16" x="193.21" y="100.33" width="10.22" height="2.92"/><circle class="cls-18" cx="229.36" cy="33.85" r="31.05"/><rect class="cls-18" x="236.23" y="7.66" width="14.02" height="48.06"/><circle class="cls-19" cx="243.34" cy="49.18" r="3.57"/><rect class="cls-19" x="238.51" y="11.38" width="9.44" height="29.75"/><rect class="cls-20" x="240.66" y="13.52" width="5.15" height="9.44"/><rect class="cls-20" x="240.66" y="24.96" width="5.15" height="1.14"/><rect class="cls-20" x="240.66" y="28.4" width="5.15" height="1.14"/><rect class="cls-20" x="240.66" y="31.83" width="5.15" height="1.14"/><rect class="cls-20" x="240.66" y="34.98" width="5.15" height="1.14"/><rect class="cls-20" x="240.66" y="38.41" width="5.15" height="1.14"/><rect class="cls-21" x="222.21" y="7.66" width="14.02" height="48.06"/><circle class="cls-19" cx="229.36" cy="49.18" r="3.57"/><rect class="cls-19" x="224.5" y="11.38" width="9.44" height="29.75"/><rect class="cls-20" x="226.64" y="13.52" width="5.15" height="9.44"/><rect class="cls-20" x="226.64" y="24.96" width="5.15" height="1.14"/><rect class="cls-20" x="226.64" y="28.4" width="5.15" height="1.14"/><rect class="cls-20" x="226.64" y="31.83" width="5.15" height="1.14"/><rect class="cls-20" x="226.64" y="34.98" width="5.15" height="1.14"/><rect class="cls-20" x="226.64" y="38.41" width="5.15" height="1.14"/><rect class="cls-21" x="208.48" y="7.66" width="14.02" height="48.06"/><circle class="cls-19" cx="215.38" cy="49.18" r="3.57"/><rect class="cls-19" x="210.77" y="11.38" width="9.44" height="29.75"/><rect class="cls-20" x="212.91" y="13.52" width="5.15" height="9.44"/><rect class="cls-20" x="212.91" y="24.96" width="5.15" height="1.14"/><rect class="cls-20" x="212.91" y="28.4" width="5.15" height="1.14"/><rect class="cls-20" x="212.91" y="31.83" width="5.15" height="1.14"/><rect class="cls-20" x="212.91" y="34.98" width="5.15" height="1.14"/><rect class="cls-20" x="212.91" y="38.41" width="5.15" height="1.14"/><circle class="cls-18" cx="206.27" cy="11.88" r="10.88"/><path class="cls-20" d="M206.24,7.44a4.52,4.52,0,0,0-4.52,4.74,4.53,4.53,0,0,0,9.05-.21h0a4.52,4.52,0,0,0-4.53-4.52ZM206.3,14A2.07,2.07,0,1,1,208.36,12,2.07,2.07,0,0,1,206.3,14Z"/><polygon class="cls-20" points="205.52 7.52 205.47 6.37 207.04 6.37 207.08 7.52 205.52 7.52"/><polygon class="cls-20" points="205.52 17.24 205.48 16.1 207.03 16.1 207.08 17.24 205.52 17.24"/><polygon class="cls-20" points="202.68 9.26 201.9 8.55 202.92 7.53 203.68 8.25 202.68 9.26"/><polygon class="cls-20" points="209.64 16.22 208.87 15.51 209.88 14.5 210.65 15.21 209.64 16.22"/><polygon class="cls-20" points="201.9 12.63 200.76 12.68 200.76 11.12 201.9 11.08 201.9 12.63"/><polygon class="cls-20" points="211.63 12.63 210.48 12.68 210.48 11.12 211.63 11.08 211.63 12.63"/><polygon class="cls-20" points="203.65 15.48 202.94 16.25 201.93 15.24 202.65 14.47 203.65 15.48"/><polygon class="cls-20" points="210.62 8.52 209.91 9.29 208.9 8.28 209.61 7.51 210.62 8.52"/><circle class="cls-18" cx="260.74" cy="26.19" r="7.15"/><polygon class="cls-20" points="258.97 22.68 262.11 22.68 262.11 26.11 264.43 26.11 260.7 29.62 256.98 26.11 258.97 26.11 258.97 22.68"/><path class="cls-20" d="M222.39,85.83a10.08,10.08,0,1,0,10.07,10.08h0a10.07,10.07,0,0,0-10.07-10.07Zm.12,14.64a4.6,4.6,0,1,1,4.59-4.6,4.6,4.6,0,0,1-4.59,4.6Z"/><polygon class="cls-20" points="220.78 86.01 220.67 83.47 224.15 83.47 224.24 86.01 220.78 86.01"/><polygon class="cls-20" points="220.78 107.64 220.68 105.1 224.15 105.1 224.24 107.64 220.78 107.64"/><polygon class="cls-20" points="214.45 89.89 212.73 88.3 214.98 86.05 216.69 87.65 214.45 89.89"/><polygon class="cls-20" points="229.94 105.37 228.23 103.79 230.47 101.54 232.18 103.13 229.94 105.37"/><polygon class="cls-20" points="212.73 97.39 210.18 97.5 210.18 94.03 212.73 93.94 212.73 97.39"/><polygon class="cls-20" points="234.36 97.39 231.82 97.5 231.82 94.03 234.36 93.94 234.36 97.39"/><polygon class="cls-20" points="216.63 103.73 215.04 105.44 212.79 103.19 214.39 101.49 216.63 103.73"/><polygon class="cls-20" points="232.11 88.23 230.53 89.95 228.28 87.7 229.87 85.99 232.11 88.23"/><path class="cls-20" d="M234.71,104.32a10.07,10.07,0,1,0,10.07,10.08h0a10.07,10.07,0,0,0-10.07-10.07Zm.12,14.63a4.59,4.59,0,1,1,4.59-4.59,4.58,4.58,0,0,1-4.59,4.59Z"/><polygon class="cls-20" points="233.1 104.5 233 101.95 236.48 101.95 236.57 104.5 233.1 104.5"/><polygon class="cls-20" points="233.11 126.13 233 123.59 236.47 123.59 236.56 126.13 233.11 126.13"/><polygon class="cls-20" points="226.78 108.37 225.06 106.79 227.31 104.54 229.01 106.13 226.78 108.37"/><polygon class="cls-20" points="242.26 123.86 240.55 122.28 242.8 120.03 244.5 121.62 242.26 123.86"/><polygon class="cls-20" points="225.05 115.88 222.51 115.98 222.51 112.52 225.05 112.43 225.05 115.88"/><polygon class="cls-20" points="246.69 115.88 244.14 115.98 244.14 112.52 246.69 112.43 246.69 115.88"/><polygon class="cls-20" points="228.95 122.21 227.37 123.92 225.12 121.68 226.71 119.97 228.95 122.21"/><polygon class="cls-20" points="244.44 106.72 242.85 108.44 240.61 106.19 242.2 104.48 244.44 106.72"/><path class="cls-20" d="M240.19,73.33a10.07,10.07,0,1,0,10.59,9.52h0a10.06,10.06,0,0,0-10.59-9.51Zm.9,14.6a4.59,4.59,0,1,1,4.34-4.83,4.59,4.59,0,0,1-4.34,4.83Z"/><polygon class="cls-20" points="238.59 73.59 238.35 71.06 241.82 70.87 242.05 73.41 238.59 73.59"/><polygon class="cls-20" points="239.76 95.19 239.52 92.66 242.98 92.47 243.21 95.01 239.76 95.19"/><polygon class="cls-20" points="232.48 77.8 230.68 76.31 232.81 73.94 234.6 75.45 232.48 77.8"/><polygon class="cls-20" points="248.78 92.43 246.99 90.94 249.11 88.58 250.9 90.08 248.78 92.43"/><polygon class="cls-20" points="231.17 85.39 228.63 85.63 228.44 82.17 230.98 81.94 231.17 85.39"/><polygon class="cls-20" points="252.77 84.22 250.23 84.47 250.05 81 252.58 80.78 252.77 84.22"/><polygon class="cls-20" points="235.4 91.5 233.91 93.3 231.55 91.18 233.04 89.39 235.4 91.5"/><polygon class="cls-20" points="250.03 75.2 248.54 77 246.18 74.88 247.67 73.08 250.03 75.2"/></g></g></svg>