<svg xmlns="http://www.w3.org/2000/svg" viewBox="0 0 321.13 131.35"><defs><style>.cls-1,.cls-10,.cls-14,.cls-4,.cls-6{fill:#fff;}.cls-1,.cls-15,.cls-2,.cls-5{stroke:#9e005d;}.cls-1,.cls-10,.cls-15,.cls-2,.cls-5{stroke-miterlimit:10;}.cls-1,.cls-2{stroke-width:2px;}.cls-15,.cls-2,.cls-5{fill:none;}.cls-3{fill:#bac0f4;}.cls-5{stroke-width:0.5px;}.cls-12,.cls-16,.cls-6{opacity:0.6;}.cls-7{opacity:0.86;}.cls-8{fill:#4056f4;}.cls-9{opacity:0.8;}.cls-10{stroke:#fff;}.cls-10,.cls-15{stroke-width:0.25px;}.cls-11{fill:#f2f2f2;}.cls-13{fill:#d8dbef;}.cls-14{opacity:0.88;}.cls-16{fill:#999;}.cls-17{fill:#9e005d;}</style></defs><g id="Layer_2" data-name="Layer 2"><g id="ChatBots"><rect class="cls-1" x="180.89" y="1" width="64.37" height="64.37" rx="17.24"/><g id="Capa_2" data-name="Capa 2"><g id="Capa_6" data-name="Capa 6"><path class="cls-2" d="M192.87,55.48V30.27c0-1.17,1.25-2.13,2.79-2.13H230.5c1.54,0,2.79,1,2.79,2.13V55.48"/><path class="cls-2" d="M199.3,34.92h4.4a1.26,1.26,0,0,1,1.18,1.34v3.68a1.26,1.26,0,0,1-1.18,1.34h-4.4"/><path class="cls-2" d="M209.69,46V44.57c0-.41.45-.74,1-.74h2.78c.56,0,1,.33,1,.74V46"/><path class="cls-2" d="M232,13.94,230.9,15.3a1,1,0,0,1-1.35,0l-2.25-1.76a1,1,0,0,1-.28-1.33l1.06-1.37"/><path class="cls-2" d="M194.67,13.94l1.07,1.36a1,1,0,0,0,1.35,0l2.26-1.76a1,1,0,0,0,.29-1.33l-1.07-1.37"/><path class="cls-2" d="M226.57,41.28h-4.74a1.3,1.3,0,0,1-1.26-1.34V36.26a1.31,1.31,0,0,1,1.26-1.34h4.74"/><path class="cls-2" d="M199.66,48.28v3.07a1.05,1.05,0,0,0,1,1.1h25a1.06,1.06,0,0,0,1-1.1V48.28"/><line class="cls-2" x1="222.45" y1="28.16" x2="228.81" y2="14.69"/><line class="cls-2" x1="204.11" y1="28.16" x2="197.75" y2="14.69"/></g></g><rect class="cls-3" x="274.09" y="58.36" width="47.04" height="62.61"/><circle class="cls-4" cx="282.41" cy="68.59" r="5.44"/><g id="Capa_2-2" data-name="Capa 2"><g id="Capa_6-2" data-name="Capa 6"><path class="cls-5" d="M279.37,71.94V68.15a.39.39,0,0,1,.42-.32H285a.39.39,0,0,1,.42.32v3.79"/><path class="cls-5" d="M280.34,68.83H281a.19.19,0,0,1,.18.2v.55a.19.19,0,0,1-.18.2h-.66"/><path class="cls-5" d="M281.9,70.52V70.3c0-.06.06-.11.15-.11h.42c.08,0,.15,0,.15.11v.22"/><path class="cls-5" d="M285.23,65.69l-.16.21a.14.14,0,0,1-.2,0l-.34-.27a.14.14,0,0,1,0-.2l.16-.2"/><path class="cls-5" d="M279.64,65.69l.16.21a.14.14,0,0,0,.2,0l.34-.27a.14.14,0,0,0,0-.2l-.16-.2"/><path class="cls-5" d="M284.43,69.78h-.71a.19.19,0,0,1-.19-.2V69a.19.19,0,0,1,.19-.2h.71"/><path class="cls-5" d="M280.37,70.85v.47a.16.16,0,0,0,.15.16h3.75a.16.16,0,0,0,.15-.16v-.47"/><line class="cls-5" x1="283.8" y1="67.83" x2="284.76" y2="65.81"/><line class="cls-5" x1="281.05" y1="67.83" x2="280.1" y2="65.81"/></g></g><rect class="cls-6" x="289.21" y="66.35" width="25.33" height="2.13" rx="0.5"/><rect class="cls-6" x="289.21" y="69" width="13.07" height="2.13" rx="0.5"/><circle class="cls-4" cx="282.41" cy="96.48" r="5.44"/><g id="Capa_2-3" data-name="Capa 2"><g id="Capa_6-3" data-name="Capa 6"><path class="cls-5" d="M279.37,99.83V96.05a.38.38,0,0,1,.42-.32H285a.38.38,0,0,1,.42.32v3.78"/><path class="cls-5" d="M280.34,96.73H281a.19.19,0,0,1,.18.2v.55a.19.19,0,0,1-.18.2h-.66"/><path class="cls-5" d="M281.9,98.41V98.2c0-.07.06-.12.15-.12h.42a.14.14,0,0,1,.15.12v.21"/><path class="cls-5" d="M285.23,93.59l-.16.21a.14.14,0,0,1-.2,0l-.34-.26a.14.14,0,0,1,0-.2l.16-.21"/><path class="cls-5" d="M279.64,93.59l.16.21a.14.14,0,0,0,.2,0l.34-.26a.14.14,0,0,0,0-.2l-.16-.21"/><path class="cls-5" d="M284.43,97.68h-.71a.19.19,0,0,1-.19-.2v-.55a.19.19,0,0,1,.19-.2h.71"/><path class="cls-5" d="M280.37,98.75v.46a.17.17,0,0,0,.15.17h3.75a.17.17,0,0,0,.15-.17v-.46"/><line class="cls-5" x1="283.8" y1="95.73" x2="284.76" y2="93.7"/><line class="cls-5" x1="281.05" y1="95.73" x2="280.1" y2="93.7"/></g></g><rect class="cls-6" x="289.21" y="94.24" width="25.33" height="2.13" rx="0.5"/><rect class="cls-6" x="289.21" y="96.9" width="13.07" height="2.13" rx="0.5"/><path class="cls-4" d="M287.85,117.58a5.41,5.41,0,0,1-1.55,3.8h-7.78a5.44,5.44,0,1,1,9.33-3.8Z"/><g id="Capa_2-4" data-name="Capa 2"><g id="Capa_6-4" data-name="Capa 6"><path class="cls-5" d="M279.37,120.93v-3.79a.39.39,0,0,1,.42-.32H285a.39.39,0,0,1,.42.32v3.79"/><path class="cls-5" d="M280.34,117.82H281a.19.19,0,0,1,.18.2v.55a.19.19,0,0,1-.18.2h-.66"/><path class="cls-5" d="M281.9,119.51v-.22c0-.06.06-.11.15-.11h.42c.08,0,.15,0,.15.11v.22"/><path class="cls-5" d="M285.23,114.68l-.16.21a.14.14,0,0,1-.2,0l-.34-.27a.14.14,0,0,1,0-.2l.16-.2"/><path class="cls-5" d="M279.64,114.68l.16.21a.14.14,0,0,0,.2,0l.34-.27a.14.14,0,0,0,0-.2l-.16-.2"/><path class="cls-5" d="M284.43,118.77h-.71a.19.19,0,0,1-.19-.2V118a.19.19,0,0,1,.19-.2h.71"/><path class="cls-5" d="M280.37,119.85v.46a.16.16,0,0,0,.15.16h3.75a.16.16,0,0,0,.15-.16v-.46"/><line class="cls-5" x1="283.8" y1="116.82" x2="284.76" y2="114.8"/><line class="cls-5" x1="281.05" y1="116.82" x2="280.1" y2="114.8"/></g></g><rect class="cls-6" x="289.21" y="115.34" width="25.33" height="2.13" rx="0.5"/><rect class="cls-6" x="289.21" y="117.99" width="13.07" height="2.13" rx="0.5"/><rect class="cls-6" x="280.9" y="80.06" width="25.33" height="2.13" rx="0.5"/><rect class="cls-6" x="293.15" y="82.72" width="13.07" height="2.13" rx="0.5"/><path class="cls-4" d="M318.09,82.45a5.4,5.4,0,0,1-1,3.17,6.6,6.6,0,0,0-8.84,0,5.44,5.44,0,1,1,9.86-3.17Z"/><g class="cls-7"><circle class="cls-8" cx="312.65" cy="80.86" r="2.38"/></g><path class="cls-8" d="M317.07,85.62a5.42,5.42,0,0,1-8.84,0,6.6,6.6,0,0,1,8.84,0Z"/><rect class="cls-6" x="280.9" y="107.28" width="25.33" height="2.13" rx="0.5"/><rect class="cls-6" x="293.15" y="109.94" width="13.07" height="2.13" rx="0.5"/><path class="cls-4" d="M318.09,109.67a5.42,5.42,0,0,1-1,3.17,6.6,6.6,0,0,0-8.84,0,5.44,5.44,0,1,1,9.86-3.17Z"/><g class="cls-7"><circle class="cls-8" cx="312.65" cy="108.08" r="2.38"/></g><path class="cls-8" d="M317.07,112.84a5.44,5.44,0,0,1-8.84,0,6.6,6.6,0,0,1,8.84,0Z"/><path class="cls-8" d="M321.13,48.76v9.66h-47V48.76c0-1.89,1.05-3.43,2.34-3.43h42.36C320.09,45.33,321.13,46.87,321.13,48.76Z"/><g class="cls-9"><path class="cls-10" d="M278.41,51.65l2.84-2v.59l-2.4,1.66h0l2.4,1.66v.59l-2.84-2Z"/></g><path class="cls-4" d="M286.7,53.52a2.15,2.15,0,0,1-.93.17A1.65,1.65,0,0,1,284,51.91a1.76,1.76,0,0,1,1.85-1.86,2,2,0,0,1,.84.16l-.11.37a1.76,1.76,0,0,0-.72-.15,1.31,1.31,0,0,0-1.37,1.46,1.28,1.28,0,0,0,1.35,1.42,1.85,1.85,0,0,0,.75-.15Z"/><path class="cls-4" d="M287.73,50.11v1.48h1.7V50.11h.46v3.53h-.46V52h-1.7v1.66h-.46V50.11Z"/><path class="cls-4" d="M291.26,52.53l-.37,1.11h-.47l1.2-3.53h.55l1.2,3.53h-.49l-.37-1.11Zm1.15-.36-.34-1c-.08-.23-.13-.44-.19-.65h0c-.05.21-.11.43-.17.64l-.35,1Z"/><path class="cls-4" d="M294.16,50.5h-1.08v-.39h2.62v.39h-1.08v3.14h-.46Z"/><path class="cls-4" d="M296.09,50.16a3.75,3.75,0,0,1,.83-.08,1.44,1.44,0,0,1,1,.26.76.76,0,0,1,.29.62.84.84,0,0,1-.59.78h0a.9.9,0,0,1,.72.88,1,1,0,0,1-.29.71,1.76,1.76,0,0,1-1.22.33,5.53,5.53,0,0,1-.71,0Zm.45,1.44H297c.48,0,.76-.25.76-.59s-.31-.58-.77-.58a1.65,1.65,0,0,0-.41,0Zm0,1.69a2.07,2.07,0,0,0,.39,0c.47,0,.9-.17.9-.68s-.41-.68-.91-.68h-.38Z"/><path class="cls-4" d="M301.94,51.84a1.65,1.65,0,0,1-1.64,1.86,1.62,1.62,0,0,1-1.58-1.79,1.68,1.68,0,0,1,1.64-1.86A1.61,1.61,0,0,1,301.94,51.84Zm-2.74.06c0,.75.41,1.43,1.13,1.43s1.13-.67,1.13-1.47-.36-1.44-1.12-1.44S299.2,51.12,299.2,51.9Z"/><path class="cls-4" d="M303.07,50.5H302v-.39h2.61v.39h-1.07v3.14h-.47Z"/><path class="cls-11" d="M321.13,120.83v5.11c0,1.82-1,3.3-2.34,3.3H276.43c-1.29,0-2.34-1.48-2.34-3.3v-5.11Z"/><g class="cls-12"><rect class="cls-8" x="276.09" y="123.84" width="31.08" height="2.38" rx="0.5"/></g><path class="cls-8" d="M312.22,125h-.54v.5h.61v.15h-.79v-1.39h.76v.15h-.58v.44h.54Z"/><path class="cls-8" d="M312.52,125.64v-1.39h.2l.45.7c.1.17.18.31.25.46h0c0-.19,0-.36,0-.58v-.58h.17v1.39h-.18l-.45-.71c-.09-.15-.19-.31-.26-.46h0c0,.18,0,.34,0,.58v.59Z"/><path class="cls-8" d="M314.2,125.64l-.46-1.39h.19l.22.68c.06.19.11.36.15.53h0a3.05,3.05,0,0,1,.16-.52l.23-.69h.19l-.5,1.39Z"/><path class="cls-8" d="M315.23,124.25v1.39h-.18v-1.39Z"/><path class="cls-8" d="M315.77,125.2l-.15.44h-.18l.47-1.39h.22l.48,1.39h-.19l-.15-.44Zm.46-.14-.14-.4c0-.09,0-.17-.07-.25h0c0,.08,0,.16-.07.25l-.13.4Z"/><path class="cls-8" d="M316.81,124.26c.1,0,.23,0,.35,0a.59.59,0,0,1,.41.12.35.35,0,0,1,.11.26.37.37,0,0,1-.27.36h0a.35.35,0,0,1,.21.28,1.51,1.51,0,0,0,.11.38h-.19a1.31,1.31,0,0,1-.09-.33c-.05-.19-.12-.27-.28-.27H317v.6h-.19Zm.19.64h.18c.19,0,.32-.1.32-.26s-.14-.26-.33-.27l-.17,0Z"/><path class="cls-13" d="M149.09,44.69v82.06a4.6,4.6,0,0,1-4.59,4.6H4.6a4.6,4.6,0,0,1-4.6-4.6V51.3H149V43.82A3.57,3.57,0,0,1,149.09,44.69Z"/><rect class="cls-6" x="37.09" y="50.04" width="112" height="32"/><rect class="cls-6" x="37.09" y="89.04" width="94" height="14"/><rect class="cls-6" x="37.09" y="106.69" width="94" height="14"/><rect class="cls-6" x="37.09" y="124.35" width="94" height="7"/><rect class="cls-14" x="7.44" y="57.32" width="22.19" height="21.72" rx="10.86"/><path class="cls-8" d="M149,44.33v8.39H0V45.31a4.9,4.9,0,0,1,4.6-5.15H144.5A4.75,4.75,0,0,1,149,44.33Z"/><rect class="cls-11" x="113.58" y="45.25" width="8.82" height="2.39"/><rect class="cls-11" x="102.77" y="45.25" width="8.82" height="2.39"/><circle class="cls-11" cx="126.59" cy="46.44" r="2.5"/><circle class="cls-11" cx="133.59" cy="46.44" r="2.5"/><circle class="cls-11" cx="140.59" cy="46.44" r="2.5"/><rect class="cls-11" x="40.07" y="100.12" width="31.85" height="31.16"/><path d="M71.84,100.19v31H40.14v-31h31.7M72,100H40v31.31H72V100Z"/><path class="cls-8" d="M72,97.14V100H40v-2.9a2.79,2.79,0,0,1,2.79-2.79H69.2A2.79,2.79,0,0,1,72,97.14Z"/><circle class="cls-4" cx="46.73" cy="105.29" r="3.33"/><g id="Capa_2-5" data-name="Capa 2"><g id="Capa_6-5" data-name="Capa 6"><path class="cls-15" d="M44.88,107.34V105a.23.23,0,0,1,.25-.2h3.2c.15,0,.26.09.26.2v2.32"/><path class="cls-15" d="M45.47,105.44h.4a.11.11,0,0,1,.11.12v.34a.12.12,0,0,1-.11.12h-.4"/><path class="cls-15" d="M46.42,106.47v-.13a.08.08,0,0,1,.09-.07h.26a.08.08,0,0,1,.09.07v.13"/><path class="cls-15" d="M48.47,103.52l-.1.12a.09.09,0,0,1-.13,0l-.2-.17a.08.08,0,0,1,0-.12l.1-.12"/><path class="cls-15" d="M45,103.52l.1.12s.08,0,.12,0l.21-.17a.08.08,0,0,0,0-.12l-.09-.12"/><path class="cls-15" d="M48,106h-.43a.12.12,0,0,1-.12-.12v-.34a.12.12,0,0,1,.12-.12H48"/><path class="cls-15" d="M45.49,106.68V107a.1.1,0,0,0,.09.1h2.3A.1.1,0,0,0,48,107v-.28"/><line class="cls-15" x1="47.59" y1="104.82" x2="48.17" y2="103.58"/><line class="cls-15" x1="45.91" y1="104.82" x2="45.32" y2="103.58"/></g></g><rect class="cls-16" x="50.9" y="103.91" width="15.51" height="1.3" rx="0.5"/><rect class="cls-16" x="50.9" y="105.54" width="8.01" height="1.3" rx="0.5"/><circle class="cls-4" cx="46.73" cy="122.37" r="3.33"/><g id="Capa_2-6" data-name="Capa 2"><g id="Capa_6-6" data-name="Capa 6"><path class="cls-15" d="M44.88,124.42V122.1a.23.23,0,0,1,.25-.19h3.2c.15,0,.26.09.26.19v2.32"/><path class="cls-15" d="M45.47,122.52h.4a.11.11,0,0,1,.11.12V123a.11.11,0,0,1-.11.12h-.4"/><path class="cls-15" d="M46.42,123.55v-.13a.08.08,0,0,1,.09-.07h.26a.08.08,0,0,1,.09.07v.13"/><path class="cls-15" d="M48.47,120.6l-.1.12a.09.09,0,0,1-.13,0l-.2-.16s-.06-.09,0-.12l.1-.13"/><path class="cls-15" d="M45,120.6l.1.12s.08,0,.12,0l.21-.16s.05-.09,0-.12l-.09-.13"/><path class="cls-15" d="M48,123.1h-.43a.12.12,0,0,1-.12-.12v-.34a.12.12,0,0,1,.12-.12H48"/><path class="cls-15" d="M45.49,123.76V124a.09.09,0,0,0,.09.1h2.3A.09.09,0,0,0,48,124v-.28"/><line class="cls-15" x1="47.59" y1="121.91" x2="48.17" y2="120.67"/><line class="cls-15" x1="45.91" y1="121.91" x2="45.32" y2="120.67"/></g></g><rect class="cls-16" x="50.9" y="121" width="15.51" height="1.3" rx="0.5"/><rect class="cls-16" x="50.9" y="122.62" width="8.01" height="1.3" rx="0.5"/><rect class="cls-16" x="45.81" y="112.31" width="15.51" height="1.3" rx="0.5"/><rect class="cls-16" x="53.32" y="113.94" width="8.01" height="1.3" rx="0.5"/><path class="cls-4" d="M68.59,113.78a3.35,3.35,0,0,1-.63,1.94,4,4,0,0,0-5.41,0,3.28,3.28,0,0,1-.63-1.94,3.34,3.34,0,1,1,6.67,0Z"/><g class="cls-7"><circle class="cls-8" cx="65.26" cy="112.8" r="1.46"/></g><path class="cls-8" d="M68,115.72a3.33,3.33,0,0,1-5.41,0,4,4,0,0,1,5.41,0Z"/><rect class="cls-4" x="40.07" y="126.43" width="31.85" height="4.85"/><path d="M71.84,126.5v4.7H40.14v-4.7h31.7m.15-.15H40v5H72v-5Z"/><rect class="cls-11" x="76.07" y="100.12" width="31.85" height="31.16"/><path d="M107.84,100.19v31H76.14v-31h31.7M108,100H76v31.31h32V100Z"/><path class="cls-8" d="M108,97.14V100H76v-2.9a2.79,2.79,0,0,1,2.79-2.79H105.2A2.79,2.79,0,0,1,108,97.14Z"/><circle class="cls-4" cx="82.73" cy="105.29" r="3.33"/><g id="Capa_2-7" data-name="Capa 2"><g id="Capa_6-7" data-name="Capa 6"><path class="cls-15" d="M80.88,107.34V105a.23.23,0,0,1,.25-.2h3.2c.15,0,.26.09.26.2v2.32"/><path class="cls-15" d="M81.47,105.44h.4a.11.11,0,0,1,.11.12v.34a.12.12,0,0,1-.11.12h-.4"/><path class="cls-15" d="M82.42,106.47v-.13a.08.08,0,0,1,.09-.07h.26a.08.08,0,0,1,.09.07v.13"/><path class="cls-15" d="M84.47,103.52l-.1.12a.09.09,0,0,1-.13,0l-.2-.17a.08.08,0,0,1,0-.12l.1-.12"/><path class="cls-15" d="M81,103.52l.1.12s.08,0,.12,0l.21-.17a.08.08,0,0,0,0-.12l-.09-.12"/><path class="cls-15" d="M84,106h-.43a.12.12,0,0,1-.12-.12v-.34a.12.12,0,0,1,.12-.12H84"/><path class="cls-15" d="M81.49,106.68V107a.1.1,0,0,0,.09.1h2.3A.1.1,0,0,0,84,107v-.28"/><line class="cls-15" x1="83.59" y1="104.82" x2="84.17" y2="103.58"/><line class="cls-15" x1="81.91" y1="104.82" x2="81.32" y2="103.58"/></g></g><rect class="cls-16" x="86.9" y="103.91" width="15.51" height="1.3" rx="0.5"/><rect class="cls-16" x="86.9" y="105.54" width="8.01" height="1.3" rx="0.5"/><circle class="cls-4" cx="82.73" cy="122.37" r="3.33"/><g id="Capa_2-8" data-name="Capa 2"><g id="Capa_6-8" data-name="Capa 6"><path class="cls-15" d="M80.88,124.42V122.1a.23.23,0,0,1,.25-.19h3.2c.15,0,.26.09.26.19v2.32"/><path class="cls-15" d="M81.47,122.52h.4a.11.11,0,0,1,.11.12V123a.11.11,0,0,1-.11.12h-.4"/><path class="cls-15" d="M82.42,123.55v-.13a.08.08,0,0,1,.09-.07h.26a.08.08,0,0,1,.09.07v.13"/><path class="cls-15" d="M84.47,120.6l-.1.12a.09.09,0,0,1-.13,0l-.2-.16c-.05,0-.06-.09,0-.12l.1-.13"/><path class="cls-15" d="M81,120.6l.1.12s.08,0,.12,0l.21-.16s0-.09,0-.12l-.09-.13"/><path class="cls-15" d="M84,123.1h-.43a.12.12,0,0,1-.12-.12v-.34a.12.12,0,0,1,.12-.12H84"/><path class="cls-15" d="M81.49,123.76V124a.09.09,0,0,0,.09.1h2.3A.09.09,0,0,0,84,124v-.28"/><line class="cls-15" x1="83.59" y1="121.91" x2="84.17" y2="120.67"/><line class="cls-15" x1="81.91" y1="121.91" x2="81.32" y2="120.67"/></g></g><rect class="cls-16" x="86.9" y="121" width="15.51" height="1.3" rx="0.5"/><rect class="cls-16" x="86.9" y="122.62" width="8.01" height="1.3" rx="0.5"/><rect class="cls-16" x="81.81" y="112.31" width="15.51" height="1.3" rx="0.5"/><rect class="cls-16" x="89.32" y="113.94" width="8.01" height="1.3" rx="0.5"/><path class="cls-4" d="M104.59,113.78a3.35,3.35,0,0,1-.63,1.94,4,4,0,0,0-5.41,0,3.28,3.28,0,0,1-.63-1.94,3.34,3.34,0,1,1,6.67,0Z"/><g class="cls-7"><circle class="cls-8" cx="101.26" cy="112.8" r="1.46"/></g><path class="cls-8" d="M104,115.72a3.33,3.33,0,0,1-5.41,0,4,4,0,0,1,5.41,0Z"/><rect class="cls-4" x="76.07" y="126.43" width="31.85" height="4.85"/><path d="M107.84,126.5v4.7H76.14v-4.7h31.7m.15-.15H76v5h32v-5Z"/><rect class="cls-11" x="112.07" y="100.12" width="31.85" height="31.16"/><path d="M143.84,100.19v31h-31.7v-31h31.7M144,100H112v31.31h32V100Z"/><path class="cls-8" d="M144,97.14V100H112v-2.9a2.79,2.79,0,0,1,2.79-2.79H141.2A2.79,2.79,0,0,1,144,97.14Z"/><circle class="cls-4" cx="118.73" cy="105.29" r="3.33"/><g id="Capa_2-9" data-name="Capa 2"><g id="Capa_6-9" data-name="Capa 6"><path class="cls-15" d="M116.88,107.34V105a.23.23,0,0,1,.25-.2h3.2c.15,0,.26.09.26.2v2.32"/><path class="cls-15" d="M117.47,105.44h.4a.11.11,0,0,1,.11.12v.34a.12.12,0,0,1-.11.12h-.4"/><path class="cls-15" d="M118.42,106.47v-.13a.08.08,0,0,1,.09-.07h.26a.08.08,0,0,1,.09.07v.13"/><path class="cls-15" d="M120.47,103.52l-.1.12a.09.09,0,0,1-.13,0l-.2-.17a.08.08,0,0,1,0-.12l.1-.12"/><path class="cls-15" d="M117,103.52l.1.12s.08,0,.12,0l.21-.17a.08.08,0,0,0,0-.12l-.09-.12"/><path class="cls-15" d="M120,106h-.43a.12.12,0,0,1-.12-.12v-.34a.12.12,0,0,1,.12-.12H120"/><path class="cls-15" d="M117.49,106.68V107a.1.1,0,0,0,.09.1h2.3a.1.1,0,0,0,.09-.1v-.28"/><line class="cls-15" x1="119.59" y1="104.82" x2="120.17" y2="103.58"/><line class="cls-15" x1="117.91" y1="104.82" x2="117.32" y2="103.58"/></g></g><rect class="cls-16" x="122.9" y="103.91" width="15.51" height="1.3" rx="0.5"/><rect class="cls-16" x="122.9" y="105.54" width="8.01" height="1.3" rx="0.5"/><circle class="cls-4" cx="118.73" cy="122.37" r="3.33"/><g id="Capa_2-10" data-name="Capa 2"><g id="Capa_6-10" data-name="Capa 6"><path class="cls-15" d="M116.88,124.42V122.1a.23.23,0,0,1,.25-.19h3.2c.15,0,.26.09.26.19v2.32"/><path class="cls-15" d="M117.47,122.52h.4a.11.11,0,0,1,.11.12V123a.11.11,0,0,1-.11.12h-.4"/><path class="cls-15" d="M118.42,123.55v-.13a.08.08,0,0,1,.09-.07h.26a.08.08,0,0,1,.09.07v.13"/><path class="cls-15" d="M120.47,120.6l-.1.12a.09.09,0,0,1-.13,0l-.2-.16c-.05,0-.06-.09,0-.12l.1-.13"/><path class="cls-15" d="M117,120.6l.1.12s.08,0,.12,0l.21-.16s0-.09,0-.12l-.09-.13"/><path class="cls-15" d="M120,123.1h-.43a.12.12,0,0,1-.12-.12v-.34a.12.12,0,0,1,.12-.12H120"/><path class="cls-15" d="M117.49,123.76V124a.09.09,0,0,0,.09.1h2.3a.09.09,0,0,0,.09-.1v-.28"/><line class="cls-15" x1="119.59" y1="121.91" x2="120.17" y2="120.67"/><line class="cls-15" x1="117.91" y1="121.91" x2="117.32" y2="120.67"/></g></g><rect class="cls-16" x="122.9" y="121" width="15.51" height="1.3" rx="0.5"/><rect class="cls-16" x="122.9" y="122.62" width="8.01" height="1.3" rx="0.5"/><rect class="cls-16" x="117.81" y="112.31" width="15.51" height="1.3" rx="0.5"/><rect class="cls-16" x="125.32" y="113.94" width="8.01" height="1.3" rx="0.5"/><path class="cls-4" d="M140.59,113.78a3.35,3.35,0,0,1-.63,1.94,4,4,0,0,0-5.41,0,3.28,3.28,0,0,1-.63-1.94,3.34,3.34,0,1,1,6.67,0Z"/><g class="cls-7"><circle class="cls-8" cx="137.26" cy="112.8" r="1.46"/></g><path class="cls-8" d="M140,115.72a3.33,3.33,0,0,1-5.41,0,4,4,0,0,1,5.41,0Z"/><rect class="cls-4" x="112.07" y="126.43" width="31.85" height="4.85"/><path d="M143.84,126.5v4.7h-31.7v-4.7h31.7m.15-.15H112v5h32v-5Z"/><path class="cls-2" d="M78,32.87S109.72,5.55,169.21,21"/><polygon class="cls-17" points="76.06 29.78 80.08 35.03 73.52 35.88 76.06 29.78"/><polygon class="cls-17" points="169.28 17.66 173.29 22.91 166.74 23.76 169.28 17.66"/><path class="cls-2" d="M266.09,103s-30,8-48-26"/><polygon class="cls-17" points="264.52 107.06 263.18 100.59 269.45 102.67 264.52 107.06"/><polygon class="cls-17" points="218.18 73.68 222.85 78.36 216.47 80.06 218.18 73.68"/></g></g></svg>