<svg xmlns="http://www.w3.org/2000/svg" viewBox="0 0 340.38 148.56"><defs><style>.cls-1{fill:#bac0f4;}.cls-2{fill:#4056f4;}.cls-3,.cls-5,.cls-6,.cls-7{fill:#fff;}.cls-3{opacity:0.88;}.cls-4{fill:#f2f2f2;}.cls-5{opacity:0.4;}.cls-6{opacity:0.6;}</style></defs><g id="Layer_2" data-name="Layer 2"><g id="Layer_6" data-name="Layer 6"><path class="cls-1" d="M298.69,6.78V128.19a6.81,6.81,0,0,1-6.8,6.8h-207a6.81,6.81,0,0,1-6.81-6.8V16.56H298.56V5.48A6.16,6.16,0,0,1,298.69,6.78Z"/><path class="cls-2" d="M298.56,6.16V18.58H78.1v-11C78.1,3.41,81.15,0,84.91,0h207A7,7,0,0,1,298.56,6.16Z"/><rect class="cls-3" x="97.98" y="1.79" width="15.32" height="15" rx="7.5"/><rect class="cls-4" x="234.31" y="7.52" width="13.05" height="3.54"/><rect class="cls-4" x="218.31" y="7.52" width="13.05" height="3.54"/><rect class="cls-4" x="249.92" y="7.52" width="13.05" height="3.54"/><rect class="cls-4" x="265.89" y="7.52" width="13.05" height="3.54"/><circle class="cls-5" cx="127.36" cy="102.33" r="15.33"/><rect class="cls-6" x="104.74" y="119.84" width="45.25" height="2.92" rx="0.5"/><rect class="cls-6" x="115.69" y="123.49" width="23.35" height="2.92" rx="0.5"/><circle class="cls-5" cx="188.36" cy="102.33" r="15.33"/><rect class="cls-6" x="165.74" y="119.84" width="45.25" height="2.92" rx="0.5"/><rect class="cls-6" x="176.69" y="123.49" width="23.35" height="2.92" rx="0.5"/><circle class="cls-5" cx="249.36" cy="102.33" r="15.33"/><rect class="cls-6" x="226.74" y="119.84" width="45.25" height="2.92" rx="0.5"/><rect class="cls-6" x="237.69" y="123.49" width="23.35" height="2.92" rx="0.5"/><rect class="cls-6" x="97.89" y="25.56" width="181" height="56"/><path class="cls-1" d="M340.38,53.56v88.7a6.3,6.3,0,0,1-6.3,6.3h-40.4a6.3,6.3,0,0,1-6.3-6.3V53.56Z"/><rect class="cls-6" x="287.38" y="53.56" width="53" height="32"/><circle class="cls-5" cx="313.88" cy="100.58" r="11.58"/><rect class="cls-6" x="296.78" y="113.82" width="34.19" height="2.21" rx="0.5"/><rect class="cls-6" x="305.06" y="116.57" width="17.64" height="2.21" rx="0.5"/><circle class="cls-5" cx="313.88" cy="136.58" r="11.58"/><path class="cls-2" d="M340.38,50v3.6h-53V50c0-4.64,2.82-8.4,6.3-8.4h40.4C337.56,41.55,340.38,45.31,340.38,50Z"/><rect class="cls-4" x="329.31" y="45.03" width="6.62" height="1.04"/><rect class="cls-4" x="329.31" y="47.03" width="6.62" height="1.04"/><rect class="cls-4" x="329.31" y="49.03" width="6.62" height="1.04"/><circle class="cls-7" cx="296.42" cy="47.55" r="4.5"/><path class="cls-1" d="M88.45,53.56v88.7c0,3.48-4.7,6.3-10.51,6.3H10.51c-5.8,0-10.51-2.82-10.51-6.3V53.56Z"/><path class="cls-2" d="M88.45,50v3.6H0V50c0-4.64,4.71-8.4,10.51-8.4H77.94C83.75,41.55,88.45,45.31,88.45,50Z"/><rect class="cls-4" x="73.38" y="45.03" width="6.62" height="1.04"/><rect class="cls-4" x="73.38" y="47.03" width="6.62" height="1.04"/><rect class="cls-4" x="73.38" y="49.03" width="6.62" height="1.04"/><circle class="cls-7" cx="14.5" cy="47.55" r="4.5"/><rect class="cls-6" y="53.56" width="88.45" height="32"/><circle class="cls-5" cx="64.73" cy="100.58" r="11.58"/><rect class="cls-6" x="47.63" y="113.82" width="34.19" height="2.21" rx="0.5"/><rect class="cls-6" x="55.9" y="116.57" width="17.64" height="2.21" rx="0.5"/><circle class="cls-5" cx="64.73" cy="136.58" r="11.58"/><circle class="cls-5" cx="23.73" cy="100.58" r="11.58"/><rect class="cls-6" x="6.63" y="113.82" width="34.19" height="2.21" rx="0.5"/><rect class="cls-6" x="14.9" y="116.57" width="17.64" height="2.21" rx="0.5"/><circle class="cls-5" cx="23.73" cy="136.58" r="11.58"/></g></g></svg>