<svg xmlns="http://www.w3.org/2000/svg" viewBox="0 0 122.5 87.12"><defs><style>.cls-1{fill:#d3a56c;}.cls-2{fill:#af1e47;}.cls-3{fill:#680020;}.cls-4{fill:#fcdba2;}.cls-5{fill:#1d2fb2;}.cls-6{fill:#00096a;}</style></defs><g id="Layer_2" data-name="Layer 2"><g id="Nunca_solo" data-name="Nunca solo"><path class="cls-1" d="M64.47,14.51c6-.39-2,2.61-2,2.61l-1,45.38s-2,.62,5,.62a7.74,7.74,0,0,1,3,1c2,1,19.11,8,19.11,8L96,49.62l-9-3s-5-2-4-5l-.5-7.5s-1-7-3-9a2.77,2.77,0,0,1,0-4s1-2-1-6-4-2-4-2l-1-1.4"/><polygon class="cls-2" points="86.5 77.12 95.5 49.12 100.5 50.12 91.5 79.12 86.5 77.12"/><polygon class="cls-3" points="90.5 80.12 100.5 48.12 122.5 55.12 112.5 87.12 90.5 80.12"/><path class="cls-4" d="M26,49.62l7-2s4-1,5-7,2.5-17.5,2.5-17.5,0-7,3-9,1-3,1-3l5-8s2-5,6-2a27.67,27.67,0,0,0,7,4l-2,5s-1,0,0,3,5,1,5,1l10-3s5-3,6,0,3,5-3,8l-4,2s-1,3,2,1,4-2,4-2,2-1,3,2a5,5,0,0,1-1,5l-5,2s-2,1-1,2a1.39,1.39,0,0,0,2,0s4-3,5-2,2,3,1,6c0,0-1,1-6,2,0,0-3,3,4,1,0,0,3-1,3,2s-1,4-1,4l-11,9-9,7s-2,4-7,2-24,10-24,10Z"/><polygon class="cls-5" points="27 48.62 21.54 50.3 30.64 78.5 36 76.62 27 48.62"/><polygon class="cls-6" points="21 48.62 0 55.62 10 86.62 31 79.62 21 48.62"/><path class="cls-1" d="M73.49,11.72l-7-9.6s-2-4-6-1l-6,3s-5,2-4,4,4,2,4,2h6s-1.5,6.5,4,4.39"/><path class="cls-1" d="M38.58,36.91,51.5,40.12s3,1,2,3-7,1-7,1l-9.1-1.2s-2.9.2-2.9-3.8S38.58,36.91,38.58,36.91Z"/><path class="cls-1" d="M39.8,28.36l13.7,4.76s3,1,3,3-2,3-5,2-13-3-13-3a8.19,8.19,0,0,1-2.35-1.41,2.33,2.33,0,0,1-.81-1.46c-.17-1.23-.25-3.43,1.16-4.13C36.5,28.12,37.1,27.6,39.8,28.36Z"/><path class="cls-1" d="M40.92,19.15l12.65,5.56c.46.2.92.39,1.39.57,1.14.44,3,1.34,3.54,2.84a4.38,4.38,0,0,1-1,3s-.5,1.5-4,0c-2.27-1-7.53-3-10.62-4.12a23.26,23.26,0,0,0-3.24-1,3.69,3.69,0,0,1-3.14-3.89C36.5,18.12,38,17.62,40.92,19.15Z"/><path class="cls-1" d="M41.5,8.12l18,10a5,5,0,0,1,1,5s-1,3-6,0a98.83,98.83,0,0,0-13-6s-4.5-1.5-4-4,.5-3.5,2-5A1.39,1.39,0,0,1,41.5,8.12Z"/></g></g></svg>