<svg xmlns="http://www.w3.org/2000/svg" viewBox="0 0 99 98"><defs><style>.cls-1{fill:#f2f2f2;}.cls-2{fill:#00096a;}.cls-3{opacity:0.74;}.cls-4{fill:#fff;stroke:#00096a;}.cls-4,.cls-6{stroke-miterlimit:10;}.cls-5{opacity:0.5;}.cls-6{fill:none;stroke:#08f93b;stroke-width:2px;}</style></defs><g id="Layer_2" data-name="Layer 2"><g id="personalize"><path class="cls-1" d="M.38,97.62V54.15A247.4,247.4,0,0,1,6.3.38H98.53a248,248,0,0,0-5.91,53.77V97.62Z"/><path class="cls-2" d="M98.06.75a249.06,249.06,0,0,0-5.81,53.4v43.1H.75V54.15A247.14,247.14,0,0,1,6.6.75H98.06M99,0H6A247.16,247.16,0,0,0,0,54.15V98H93V54.15A247.16,247.16,0,0,1,99,0Z"/><g class="cls-3"><rect class="cls-2" x="23" y="5" width="66" height="8.23" rx="2.12"/></g><path class="cls-4" d="M20,31H5l1-7.09C6,21,7.33,18,8,15.16H23C22.36,18,21,21,21,23.91Z"/><g class="cls-5"><rect class="cls-2" x="27" y="17" width="66" height="4.23" rx="2.12"/></g><g class="cls-5"><rect class="cls-2" x="25" y="25" width="48" height="4.23" rx="2.12"/></g><g class="cls-5"><rect class="cls-2" x="24" y="38" width="66" height="4.23" rx="2.12"/></g><g class="cls-5"><rect class="cls-2" x="22" y="46" width="48" height="4.23" rx="2.12"/></g><rect class="cls-4" x="5" y="37" width="14" height="14"/><g class="cls-5"><rect class="cls-2" x="23" y="59" width="66" height="4.23" rx="2.12"/></g><g class="cls-5"><rect class="cls-2" x="21" y="67" width="48" height="4.23" rx="2.12"/></g><rect class="cls-4" x="5" y="58" width="14" height="14"/><g class="cls-5"><rect class="cls-2" x="23" y="80" width="66" height="4.23" rx="2.12"/></g><g class="cls-5"><rect class="cls-2" x="21" y="88" width="48" height="4.23" rx="2.12"/></g><rect class="cls-4" x="5" y="78" width="14" height="14"/><path class="cls-6" d="M4,45s5.7,1,6,4.7a.05.05,0,0,0,.1,0c.56-1.63,3.8-10,11.91-12.72"/><path class="cls-6" d="M4,86s5.7,1,6,4.7a.05.05,0,0,0,.1,0c.56-1.63,3.8-10,11.91-12.72"/></g></g></svg>