<svg xmlns="http://www.w3.org/2000/svg" viewBox="0 0 174 74"><defs><style>.cls-1{fill:#e2e1c7;}.cls-2{fill:#3e5232;}</style></defs><g id="Layer_2" data-name="Layer 2"><g id="Facilidades_Pago" data-name="Facilidades Pago"><polygon class="cls-1" points="25.4 24.51 25.4 48.93 11.7 48.45 11.5 48.25 11.5 25.75 11.7 25.55 25.4 24.51"/><polygon class="cls-2" points="11.5 48.25 11.7 48.45 4.73 48.2 4.73 26.08 11.7 25.55 11.5 25.75 11.5 48.25"/><polygon class="cls-1" points="4.73 26.08 4.73 48.2 0 48.04 0 26.44 4.73 26.08"/><path class="cls-1" d="M25.4,50.93V63H24.25l-4.12-4.12a3.19,3.19,0,0,0-4.51-4.51L11.7,50.45Z"/><path class="cls-2" d="M25.4,63v6.24H4.73v-19l7,.25,3.92,3.92a3.19,3.19,0,0,1,4.51,4.51L24.25,63Z"/><polygon class="cls-1" points="25.4 69.24 25.4 74 0 74 0 50.04 4.73 50.2 4.73 69.24 25.4 69.24"/><rect class="cls-1" x="27.4" y="69.24" width="28" height="4.76"/><rect class="cls-2" x="27.4" y="63" width="28" height="6.24"/><polygon class="cls-1" points="55.4 51.91 55.4 63 27.4 63 27.4 50.93 55.4 51.91"/><path class="cls-2" d="M85.4,52.89V59A14.9,14.9,0,0,1,74.19,52.5Z"/><path class="cls-1" d="M85.4,59v4h-28V51.91l16.79.59A14.9,14.9,0,0,0,85.4,59Z"/><rect class="cls-2" x="57.4" y="63" width="28" height="6.24"/><rect class="cls-1" x="57.4" y="69.24" width="28" height="4.76"/><path class="cls-2" d="M99.18,53.3A14.48,14.48,0,0,1,88,59c-.2,0-.4,0-.6,0V52.89Z"/><path class="cls-1" d="M115.4,53.87V63h-28V59c.2,0,.4,0,.6,0a14.48,14.48,0,0,0,11.18-5.7Z"/><rect class="cls-2" x="87.4" y="63" width="28" height="6.24"/><rect class="cls-1" x="87.4" y="69.24" width="28" height="4.76"/><polygon class="cls-1" points="145.4 54.85 145.4 63 117.4 63 117.4 53.87 145.4 54.85"/><rect class="cls-2" x="117.4" y="63" width="28" height="6.24"/><rect class="cls-1" x="117.4" y="69.24" width="28" height="4.76"/><path class="cls-1" d="M162.5,25.75v22.5l-4.12,4.12a3.18,3.18,0,0,0-5,.69l-6-.21V16l5-.38,1.47,1.47a3.19,3.19,0,0,0,4.51,4.51Z"/><path class="cls-2" d="M169.27,14.37V53.61l-15.91-.55a3.18,3.18,0,0,1,5-.69l4.12-4.12V25.75l-4.12-4.12a3.19,3.19,0,0,1-4.51-4.51l-1.47-1.47Z"/><polygon class="cls-1" points="174 14.01 174 53.78 169.27 53.61 169.27 14.37 174 14.01"/><path class="cls-1" d="M153.87,58.88,149.75,63H147.4V54.85l6,.21a3.06,3.06,0,0,0-.42,1.56A3.18,3.18,0,0,0,153.87,58.88Z"/><path class="cls-2" d="M169.27,55.61V69.24H147.4V63h2.35l4.12-4.12a3.18,3.18,0,0,1-.93-2.26,3.06,3.06,0,0,1,.42-1.56Z"/><polygon class="cls-1" points="174 55.78 174 74 147.4 74 147.4 69.24 169.27 69.24 169.27 55.61 174 55.78"/><path class="cls-2" d="M25.4,4.75V11H24.25l-4.12,4.12a3.19,3.19,0,0,1-4.51,4.51L11.7,23.55l-7,.53V4.75Z"/><polygon class="cls-1" points="25.4 0 25.4 4.75 4.73 4.75 4.73 24.08 0 24.44 0 0 25.4 0"/><path class="cls-1" d="M25.4,11V22.51l-13.7,1,3.92-3.92a3.19,3.19,0,0,0,4.51-4.51L24.25,11Z"/><rect class="cls-2" x="27.4" y="4.75" width="28" height="6.25"/><rect class="cls-1" x="27.4" width="28" height="4.75"/><polygon class="cls-1" points="55.4 11 55.4 20.39 27.4 22.51 27.4 11 55.4 11"/><rect class="cls-2" x="57.4" y="4.75" width="28" height="6.25"/><rect class="cls-1" x="57.4" width="28" height="4.75"/><path class="cls-1" d="M85.4,11v4A14,14,0,0,0,76.46,19h0L57.4,20.39V11Z"/><path class="cls-2" d="M85.4,15v3.25L76.46,19A14,14,0,0,1,85.4,15Z"/><path class="cls-1" d="M115.4,11v5.15L95.92,17.62h0A13.49,13.49,0,0,0,88,15c-.2,0-.4,0-.6,0V11Z"/><rect class="cls-2" x="87.4" y="4.75" width="28" height="6.25"/><rect class="cls-1" x="87.4" width="28" height="4.75"/><path class="cls-2" d="M95.91,17.62l-8.51.65V15c.2,0,.4,0,.6,0A13.49,13.49,0,0,1,95.91,17.62Z"/><rect class="cls-2" x="117.4" y="4.75" width="28" height="6.25"/><rect class="cls-1" x="117.4" width="28" height="4.75"/><polygon class="cls-1" points="145.4 11 145.4 14.03 117.4 16.15 117.4 11 145.4 11"/><polygon class="cls-2" points="169.27 4.75 169.27 12.37 152.4 13.65 149.75 11 147.4 11 147.4 4.75 169.27 4.75"/><polygon class="cls-1" points="174 0 174 12.01 169.27 12.37 169.27 4.75 147.4 4.75 147.4 0 174 0"/><polygon class="cls-1" points="152.4 13.65 147.4 14.03 147.4 11 149.75 11 152.4 13.65"/><path class="cls-1" d="M117.4,18.15V51.87l28,1V16ZM135,43a6,6,0,1,1,6-6A6,6,0,0,1,135,43Z"/><circle class="cls-2" cx="135" cy="37" r="6"/><path class="cls-1" d="M94,41.4c0,2.56-1.77,5-5.1,5.49v3.36H87.4V44.79c2.29,0,3.83-1.32,3.83-3.16S90,38.76,87.58,37.79l-.18-.07v-3c.47.24,1,.48,1.64.74C92.36,36.85,94,38.53,94,41.4Z"/><path class="cls-1" d="M115.4,18.15V51.87L99.18,51.3A22.59,22.59,0,0,0,104,37c0-7.45-3.25-13.94-8.08-17.38Z"/><path class="cls-2" d="M104,37a22.59,22.59,0,0,1-4.82,14.3L87.4,50.89v-.64h1.54V46.89C92.27,46.35,94,44,94,41.4c0-2.87-1.68-4.55-5-5.91-.62-.26-1.17-.5-1.64-.74V29.14A4.86,4.86,0,0,1,88.46,29a7.81,7.81,0,0,1,4.07,1.1l.8-2.13a8.52,8.52,0,0,0-4.19-1.13V23.74H87.4V20.27l8.51-.65h0C100.75,23.06,104,29.55,104,37Z"/><path class="cls-1" d="M93.33,28l-.8,2.13A7.81,7.81,0,0,0,88.46,29a4.86,4.86,0,0,0-1.06.11v-5.4h1.74v3.13A8.52,8.52,0,0,1,93.33,28Z"/><path class="cls-2" d="M91.23,41.63c0,1.84-1.54,3.16-3.83,3.16V37.72l.18.07C90,38.76,91.23,39.85,91.23,41.63Z"/><circle class="cls-2" cx="36.5" cy="37" r="6"/><path class="cls-1" d="M27.4,24.51V48.93l28,1V22.39ZM36.5,43a6,6,0,1,1,6-6A6,6,0,0,1,36.5,43Z"/><path class="cls-1" d="M83,31.81c0,1.31.73,2.1,2.37,2.94v3c-3.19-1.28-5.14-2.76-5.14-5.52s1.9-4.72,4.87-5.2V23.74h.27v5.4A2.72,2.72,0,0,0,83,31.81Z"/><path class="cls-2" d="M85.4,29.14v5.61C83.76,33.91,83,33.12,83,31.81A2.72,2.72,0,0,1,85.4,29.14Z"/><path class="cls-1" d="M85.4,44.79v5.46h-.49V47a9.37,9.37,0,0,1-5-1.42l.78-2.16a8.64,8.64,0,0,0,4.65,1.38Z"/><path class="cls-1" d="M70,37a23,23,0,0,0,4.19,13.5L57.4,49.91V22.39L76.45,21A22,22,0,0,0,70,37Z"/><path class="cls-2" d="M80.26,32.2c0,2.76,1.95,4.24,5.14,5.52v7.07h0a8.64,8.64,0,0,1-4.65-1.38L80,45.57a9.37,9.37,0,0,0,5,1.42v3.26h.49v.64L74.19,50.5A23,23,0,0,1,70,37a22,22,0,0,1,6.45-16h0l8.94-.68v3.47h-.27V27C82.16,27.48,80.26,29.52,80.26,32.2Z"/></g></g></svg>