<svg xmlns="http://www.w3.org/2000/svg" viewBox="0 0 105.8 84.5"><defs><style>.cls-1{fill:#c10c15;}.cls-2,.cls-5{fill:none;stroke-miterlimit:10;}.cls-2{stroke:#00096a;stroke-width:6px;}.cls-3{fill:#00096a;}.cls-4{fill:#1d2fb2;}.cls-5{stroke:#1d2fb2;stroke-width:3px;}</style></defs><g id="Layer_2" data-name="Layer 2"><g id="Soporte_24_7" data-name="Soporte 24/7"><path class="cls-1" d="M52.73,13.75a28,28,0,1,1-28,28,28,28,0,0,1,28-28m0-5a33,33,0,1,0,33,33,33,33,0,0,0-33-33Z"/><path d="M49.1,17.86h0l-1.35.73-.2-.8,1.7-.91h.9v7.8h-1Z"/><path d="M53,24.68V24l.83-.81c2-1.89,2.89-2.9,2.9-4.07a1.39,1.39,0,0,0-1.54-1.53,2.66,2.66,0,0,0-1.66.66l-.33-.74a3.38,3.38,0,0,1,2.2-.79A2.19,2.19,0,0,1,57.75,19c0,1.44-1,2.61-2.69,4.19l-.62.58v0h3.5v.88Z"/><path d="M73.15,44.43a3.41,3.41,0,0,0,1.72.5c1.36,0,1.78-.87,1.77-1.52,0-1.09-1-1.55-2-1.55H74v-.8h.59c.77,0,1.74-.39,1.74-1.32,0-.62-.39-1.17-1.37-1.17a2.89,2.89,0,0,0-1.56.52l-.27-.77a3.71,3.71,0,0,1,2-.6c1.53,0,2.23.91,2.23,1.86A1.94,1.94,0,0,1,76,41.41v0a2,2,0,0,1,1.74,2c0,1.25-1,2.34-2.84,2.34a4,4,0,0,1-2-.53Z"/><path d="M54.63,59.56a3.83,3.83,0,0,0-.79,0,3.18,3.18,0,0,0-2.71,2.77h0A2.37,2.37,0,0,1,55.4,64a2.61,2.61,0,0,1-2.59,2.75c-1.67,0-2.76-1.3-2.76-3.32a5,5,0,0,1,1.32-3.52,4.28,4.28,0,0,1,2.5-1.15,4.73,4.73,0,0,1,.76-.06Zm-.29,4.5a1.59,1.59,0,0,0-1.61-1.79,1.73,1.73,0,0,0-1.51,1,.84.84,0,0,0-.12.47c0,1.28.61,2.23,1.71,2.23C53.72,65.93,54.34,65.18,54.34,64.06Z"/><path d="M28.39,44.91a4.46,4.46,0,0,0,.85,0,2.91,2.91,0,0,0,1.63-.76,3.35,3.35,0,0,0,1-2.07h0a2.3,2.3,0,0,1-1.84.84,2.26,2.26,0,0,1-2.3-2.39,2.68,2.68,0,0,1,2.66-2.77C32,37.72,33,39,33,41a5,5,0,0,1-1.34,3.66,4,4,0,0,1-2.27,1,5,5,0,0,1-1,.06Zm.38-4.49a1.51,1.51,0,0,0,1.5,1.66,1.75,1.75,0,0,0,1.54-.82.71.71,0,0,0,.09-.38c0-1.34-.49-2.35-1.59-2.35C29.41,38.53,28.77,39.32,28.77,40.42Z"/><circle cx="52.73" cy="41.75" r="1.5"/><circle cx="40.1" cy="24.12" r="0.88"/><circle cx="33.1" cy="31.12" r="0.88"/><circle cx="65.1" cy="24.12" r="0.88"/><circle cx="72.1" cy="31.12" r="0.88"/><circle cx="40.1" cy="59.12" r="0.88"/><circle cx="33.1" cy="52.12" r="0.88"/><circle cx="65.1" cy="59.12" r="0.88"/><circle cx="72.1" cy="52.12" r="0.88"/><path class="cls-2" d="M8.94,36.79A17.86,17.86,0,0,1,8,31.07C8,15.57,28.15,3,53,3S98,15.57,98,31.07a18.38,18.38,0,0,1-1.61,7.47"/><rect class="cls-3" x="85.8" y="24.2" width="4.8" height="32.8"/><path class="cls-4" d="M91.4,26.6h.4a14,14,0,0,1,14,14v0a14,14,0,0,1-14,14h-.4a0,0,0,0,1,0,0v-28a0,0,0,0,1,0,0Z"/><rect class="cls-3" x="15.2" y="24.2" width="4.8" height="32.8" transform="translate(35.2 81.2) rotate(-180)"/><path class="cls-4" d="M0,26.6H.4a14,14,0,0,1,14,14v0a14,14,0,0,1-14,14H0a0,0,0,0,1,0,0v-28A0,0,0,0,1,0,26.6Z" transform="translate(14.4 81.2) rotate(180)"/><polyline class="cls-5" points="100 48 82.06 74.95 62 80"/><ellipse class="cls-3" cx="59" cy="80" rx="6.5" ry="4.5"/></g></g></svg>