<svg xmlns="http://www.w3.org/2000/svg" viewBox="0 0 139.64 85.46"><defs><style>.cls-1{fill:#bac0f4;}.cls-2{fill:#4056f4;}.cls-3,.cls-5,.cls-9{fill:#fff;}.cls-3{opacity:0.88;}.cls-4{fill:#f2f2f2;}.cls-5,.cls-8{opacity:0.6;}.cls-6,.cls-7{opacity:0.8;}.cls-7{fill:#136305;}.cls-10,.cls-11{fill:none;stroke-miterlimit:10;}.cls-10{stroke:#fff;stroke-width:0.25px;}.cls-11{stroke:#000;}</style></defs><g id="Layer_2" data-name="Layer 2"><g id="easy"><path class="cls-1" d="M139.64,4.29V81.15a4.31,4.31,0,0,1-4.3,4.31H4.31A4.32,4.32,0,0,1,0,81.15V10.48H139.56v-7A3.68,3.68,0,0,1,139.64,4.29Z"/><path class="cls-2" d="M139.56,3.9v7.86H0V4.82A4.59,4.59,0,0,1,4.31,0h131A4.45,4.45,0,0,1,139.56,3.9Z"/><rect class="cls-3" x="12.59" y="1.13" width="9.7" height="9.5" rx="4.75"/><rect class="cls-4" x="98.89" y="4.76" width="8.26" height="2.24"/><rect class="cls-4" x="88.76" y="4.76" width="8.26" height="2.24"/><rect class="cls-4" x="108.77" y="4.76" width="8.26" height="2.24"/><rect class="cls-4" x="118.88" y="4.76" width="8.26" height="2.24"/><rect class="cls-5" x="6.51" y="16.18" width="32.92" height="62.67"/><rect class="cls-5" x="41.34" y="16.18" width="91.79" height="62.67"/><rect class="cls-6" x="10.17" y="19.35" width="11.39" height="4.43"/><rect class="cls-7" x="21.01" y="72.36" width="14.56" height="4.43" rx="1.1"/><g class="cls-8"><rect class="cls-6" x="10.17" y="27.58" width="25.96" height="2.53"/><rect class="cls-6" x="10.17" y="31.37" width="13.29" height="2.53"/></g><g class="cls-8"><rect class="cls-6" x="10.17" y="38.97" width="25.96" height="2.53"/><rect class="cls-6" x="10.17" y="42.77" width="13.29" height="2.53"/></g><g class="cls-8"><rect class="cls-6" x="10.17" y="50.37" width="25.96" height="2.53"/><rect class="cls-6" x="10.17" y="54.16" width="13.29" height="2.53"/></g><g class="cls-8"><rect class="cls-6" x="10.17" y="61.76" width="25.96" height="2.53"/><rect class="cls-6" x="10.17" y="65.56" width="13.29" height="2.53"/></g><rect class="cls-9" x="27.34" y="73.95" width="1.9" height="1.9" rx="0.28"/><circle class="cls-10" cx="28.29" cy="73.95" r="0.63"/><polygon class="cls-9" points="62.52 67.45 84.54 45.44 77.64 41.5 98.31 38.55 92.4 57.26 89.44 51.33 67.92 72.85 62.52 67.45"/><path d="M98.2,38.64,92.38,57.06l-2.83-5.67-.09-.19-.15.15L67.92,72.74l-5.29-5.28,21.89-21.9.14-.14-.17-.1-6.62-3.78,20.33-2.9m.22-.18-21,3,7,4-22,22,5.5,5.5,21.5-21.5,3,6,6-19Z"/><path class="cls-11" d="M84,37.54s11.74,2.84,10.66-8.15"/><path class="cls-11" d="M107.92,40.37s-12.08-.13-8.55,10.34"/><path class="cls-11" d="M97.71,28.57s0,12.08,10.44,8.43"/></g></g></svg>