<svg xmlns="http://www.w3.org/2000/svg" viewBox="0 0 136.65 99.45"><defs><style>.cls-1{fill:#fff;}.cls-2{fill:#00096a;}.cls-3{fill:#b0b7ed;}.cls-4{fill:#8b0003;}.cls-5{fill:#e7da00;}.cls-6,.cls-7{fill:#17ff27;}.cls-7,.cls-8{stroke:#00096a;stroke-width:2px;}.cls-7,.cls-8,.cls-9{stroke-miterlimit:10;}.cls-8{fill:#aeb204;}.cls-9{fill:none;stroke:#d0002c;stroke-width:7px;opacity:0.75;}</style></defs><g id="Layer_2" data-name="Layer 2"><g id="No_preocupacion" data-name="No preocupacion"><path class="cls-1" d="M62.64,86.61a41,41,0,0,1-14.91-2.94l-.37-.16-.37.13a22.7,22.7,0,0,1-7.51,1.44c-9.58,0-12.17-8.68-12.2-8.77l-.22-.79-.82.07c-1.53.13-3,.19-4.29.19h0c-5.74,0-9.46-1.24-10.74-3.57-1.63-3,.93-7,.95-7.09l.61-1-1-.49C7.2,61.54,4.6,58.79,4,55.49c-1-6.06,5-12.14,5-12.2l1.56-1.56-2.21-.14c-4.18-.26-6.68-1.24-7.25-2.84-.85-2.4,2.5-6.18,3.87-7.43L5.4,31l-.09-.54C4.59,26.13,5.06,23,6.7,21c1.35-1.6,3.53-2.4,6.48-2.4a21,21,0,0,1,5.82.9l.66.22.43-.53A15.76,15.76,0,0,1,32.9,13.39a26.73,26.73,0,0,1,10,2.1l.45.21.44-.23a21.27,21.27,0,0,1,10.08-2.63c9.18,0,15.68,6.39,15.74,6.45l.61.61.69-.51a22.73,22.73,0,0,1,13.6-4.69A25.24,25.24,0,0,1,98.7,19.37l.47.37.55-.24a26.89,26.89,0,0,1,10.61-2.43c14.07,0,20,14.73,20.06,14.88l.08.22.17.15c3.25,3,4.93,6.29,5,9.86.14,6.44-5,11.65-5,11.7l-.25.25,0,.34c-.51,4.57-3.76,15.18-22.91,15.18-1.24,0-2-.06-2-.06l-.76-.06-.26.72C100.69,80.57,87.52,81.68,82,81.68c-1.59,0-2.6-.09-2.61-.09l-.37,0-.3.22A27.06,27.06,0,0,1,62.64,86.61Z"/><path class="cls-2" d="M53.87,13.84c8.71,0,15,6.1,15,6.16l1.21,1.21,1.38-1a21.72,21.72,0,0,1,13-4.5,24.37,24.37,0,0,1,13.57,4.46l.94.74,1.1-.48a25.81,25.81,0,0,1,10.21-2.35c5.54,0,10.42,2.35,14.5,7a28.24,28.24,0,0,1,4.63,7.26l.17.44.34.31c3,2.77,4.6,5.84,4.68,9.11.14,6-4.7,10.95-4.74,11l-.5.5-.08.69c-1.43,12.9-15.8,14.29-21.91,14.29-1.19,0-1.93-.06-1.93-.06L104,68.46l-.51,1.45C100,79.63,87.31,80.68,82,80.68c-1.54,0-2.51-.09-2.52-.09l-.74-.07-.61.44a26.12,26.12,0,0,1-15.52,4.65,40.24,40.24,0,0,1-14.51-2.85l-.73-.33-.75.27a21.64,21.64,0,0,1-7.16,1.38,11.64,11.64,0,0,1-11.25-8l-.45-1.58-1.64.13c-1.5.13-2.91.19-4.2.19-5.28,0-8.78-1.08-9.86-3s.28-5.07.91-6.06l1.24-1.92-2.07-1c-4.23-2-6.64-4.5-7.16-7.45C4,49.81,9.68,44.05,9.73,44l3.14-3.13-4.43-.28c-5.31-.33-6.21-1.75-6.36-2.17-.54-1.5,1.74-4.66,3.59-6.36l.8-.73-.18-1.07c-.66-4-.27-6.88,1.18-8.58,1.15-1.36,3.07-2.05,5.71-2.05a20.17,20.17,0,0,1,5.51.85l1.31.44.87-1.07a14.8,14.8,0,0,1,12-5.46,25.56,25.56,0,0,1,9.57,2l.91.42.88-.47a20.28,20.28,0,0,1,9.61-2.51m0-2a22.17,22.17,0,0,0-10.55,2.75,27.33,27.33,0,0,0-10.42-2.2,16.84,16.84,0,0,0-13.58,6.2,21.83,21.83,0,0,0-6.14-1c-4.9,0-10.66,2.15-8.86,13,0,0-12,11,4,12,0,0-14,14,3,22,0,0-7.84,12.19,10.63,12.19,1.32,0,2.77-.06,4.37-.19,0,0,2.71,9.49,13.17,9.49a23.79,23.79,0,0,0,7.83-1.49,41.93,41.93,0,0,0,15.32,3,28.28,28.28,0,0,0,16.68-5s1,.09,2.71.09c5.83,0,19.4-1.21,23.29-12.09,0,0,.79.06,2.1.06,5.9,0,22.26-1.34,23.9-16.06,0,0,12-12,0-23,0,0-6.07-15.52-21-15.52a27.53,27.53,0,0,0-11,2.52A26.16,26.16,0,0,0,84.51,13.7a23.58,23.58,0,0,0-14.19,4.89s-6.75-6.75-16.45-6.75Z"/><polygon class="cls-3" points="32.15 29.09 26.82 25.09 56.49 25.09 61.82 29.09 32.15 29.09"/><path class="cls-2" d="M56.15,26.09l2.67,2H32.49l-2.67-2H56.15m.67-2h-33l8,6h33l-8-6Z"/><polygon class="cls-3" points="32.15 39.34 26.82 35.34 56.49 35.34 61.82 39.34 32.15 39.34"/><path class="cls-2" d="M56.15,36.34l2.67,2H32.49l-2.67-2H56.15m.67-2h-33l8,6h33l-8-6Z"/><polygon class="cls-3" points="32.15 49.59 26.82 45.59 56.49 45.59 61.82 49.59 32.15 49.59"/><path class="cls-2" d="M56.15,46.59l2.67,2H32.49l-2.67-2H56.15m.67-2h-33l8,6h33l-8-6Z"/><polygon class="cls-3" points="32.15 59.84 26.82 55.84 56.49 55.84 61.82 59.84 32.15 59.84"/><path class="cls-2" d="M56.15,56.84l2.67,2H32.49l-2.67-2H56.15m.67-2h-33l8,6h33l-8-6Z"/><polygon class="cls-3" points="32.15 70.08 26.82 66.08 56.49 66.08 61.82 70.08 32.15 70.08"/><path class="cls-2" d="M56.15,67.09l2.67,2H32.49l-2.67-2H56.15m.67-2h-33l8,6h33l-8-6Z"/><path class="cls-2" d="M25.82,28.09l4,3v36l-4-3v-36m-2-4v41l8,6v-41l-8-6Z"/><path class="cls-2" d="M58.82,28.09l4,3v36l-4-3v-36m-2-4v41l8,6v-41l-8-6Z"/><circle class="cls-4" cx="34.82" cy="34.09" r="1"/><circle class="cls-5" cx="37.82" cy="34.09" r="1"/><circle class="cls-6" cx="40.82" cy="34.09" r="1"/><circle class="cls-4" cx="34.82" cy="45.09" r="1"/><circle class="cls-5" cx="37.82" cy="45.09" r="1"/><circle class="cls-6" cx="40.82" cy="45.09" r="1"/><circle class="cls-4" cx="34.82" cy="55.09" r="1"/><circle class="cls-5" cx="37.82" cy="55.09" r="1"/><circle class="cls-6" cx="40.82" cy="55.09" r="1"/><circle class="cls-4" cx="34.82" cy="65.09" r="1"/><circle class="cls-5" cx="37.82" cy="65.09" r="1"/><circle class="cls-6" cx="40.82" cy="65.09" r="1"/><path class="cls-7" d="M79.93,29a.72.72,0,0,0-.11.36V29Z"/><path class="cls-7" d="M100.82,29v.36a.72.72,0,0,0-.11-.36Z"/><path class="cls-8" d="M100.82,29.34v8c0-1.4-4.7-2.54-10.5-2.54s-10.5,1.14-10.5,2.54v-8c0,1.4,4.7,2.54,10.5,2.54S100.82,30.74,100.82,29.34Z"/><path class="cls-8" d="M100.82,37.31v8c0-1.39-4.7-2.53-10.5-2.53s-10.5,1.14-10.5,2.53v-8c0,1.4,4.7,2.53,10.5,2.53S100.82,38.71,100.82,37.31Z"/><path class="cls-8" d="M100.82,45.27v7.61h-.11c-.73-1.23-5.1-2.17-10.39-2.17s-9.66.94-10.39,2.17h-.11V45.27c0,1.4,4.7,2.54,10.5,2.54S100.82,46.67,100.82,45.27Z"/><path class="cls-8" d="M100.82,28.62c0,1.4-4.7,2.53-10.5,2.53S79.82,30,79.82,28.62a.69.69,0,0,1,.11-.36c.73-1.23,5.1-2.17,10.39-2.17s9.66.94,10.39,2.17A.69.69,0,0,1,100.82,28.62Z"/><ellipse class="cls-8" cx="90.32" cy="37.31" rx="10.5" ry="2.53"/><ellipse class="cls-8" cx="90.32" cy="45.27" rx="10.5" ry="2.53"/><path class="cls-8" d="M100.82,53.24c0,1.4-4.7,2.53-10.5,2.53s-10.5-1.13-10.5-2.53a.69.69,0,0,1,.11-.36c.73-1.23,5.1-2.17,10.39-2.17s9.66.94,10.39,2.17A.69.69,0,0,1,100.82,53.24Z"/><path class="cls-7" d="M97.93,39a.72.72,0,0,0-.11.36V39Z"/><path class="cls-7" d="M118.82,39v.36a.72.72,0,0,0-.11-.36Z"/><path class="cls-8" d="M118.82,39.34v8c0-1.4-4.7-2.54-10.5-2.54s-10.5,1.14-10.5,2.54v-8c0,1.4,4.7,2.54,10.5,2.54S118.82,40.74,118.82,39.34Z"/><path class="cls-8" d="M118.82,47.31v8c0-1.39-4.7-2.53-10.5-2.53s-10.5,1.14-10.5,2.53v-8c0,1.4,4.7,2.53,10.5,2.53S118.82,48.71,118.82,47.31Z"/><path class="cls-8" d="M118.82,55.27v7.61h-.11c-.73-1.23-5.1-2.17-10.39-2.17s-9.66.94-10.39,2.17h-.11V55.27c0,1.4,4.7,2.54,10.5,2.54S118.82,56.67,118.82,55.27Z"/><path class="cls-8" d="M118.82,38.62c0,1.4-4.7,2.53-10.5,2.53S97.82,40,97.82,38.62a.69.69,0,0,1,.11-.36c.73-1.23,5.1-2.17,10.39-2.17s9.66.94,10.39,2.17A.69.69,0,0,1,118.82,38.62Z"/><ellipse class="cls-8" cx="108.32" cy="47.31" rx="10.5" ry="2.53"/><ellipse class="cls-8" cx="108.32" cy="55.27" rx="10.5" ry="2.53"/><path class="cls-8" d="M118.82,63.24c0,1.4-4.7,2.53-10.5,2.53s-10.5-1.13-10.5-2.53a.69.69,0,0,1,.11-.36c.73-1.23,5.1-2.17,10.39-2.17s9.66.94,10.39,2.17A.69.69,0,0,1,118.82,63.24Z"/><path class="cls-7" d="M71.93,38a.72.72,0,0,0-.11.36V38Z"/><path class="cls-7" d="M92.82,38v.36a.72.72,0,0,0-.11-.36Z"/><path class="cls-8" d="M92.82,38.34v8c0-1.4-4.7-2.54-10.5-2.54s-10.5,1.14-10.5,2.54v-8c0,1.4,4.7,2.54,10.5,2.54S92.82,39.74,92.82,38.34Z"/><path class="cls-8" d="M92.82,46.31v8c0-1.39-4.7-2.53-10.5-2.53s-10.5,1.14-10.5,2.53v-8c0,1.4,4.7,2.53,10.5,2.53S92.82,47.71,92.82,46.31Z"/><path class="cls-8" d="M92.82,54.27v7.61h-.11c-.73-1.23-5.1-2.17-10.39-2.17s-9.66.94-10.39,2.17h-.11V54.27c0,1.4,4.7,2.54,10.5,2.54S92.82,55.67,92.82,54.27Z"/><path class="cls-8" d="M92.82,37.62c0,1.4-4.7,2.53-10.5,2.53S71.82,39,71.82,37.62a.69.69,0,0,1,.11-.36c.73-1.23,5.1-2.17,10.39-2.17S92,36,92.71,37.26A.69.69,0,0,1,92.82,37.62Z"/><ellipse class="cls-8" cx="82.32" cy="46.31" rx="10.5" ry="2.53"/><ellipse class="cls-8" cx="82.32" cy="54.27" rx="10.5" ry="2.53"/><path class="cls-8" d="M92.82,62.24c0,1.4-4.7,2.53-10.5,2.53s-10.5-1.13-10.5-2.53a.69.69,0,0,1,.11-.36c.73-1.23,5.1-2.17,10.39-2.17s9.66.94,10.39,2.17A.69.69,0,0,1,92.82,62.24Z"/><line class="cls-9" x1="21.08" y1="2.47" x2="115.58" y2="96.97"/><line class="cls-9" x1="115.58" y1="2.47" x2="21.08" y2="96.97"/></g></g></svg>